<svg viewBox="0 0 64 64" xmlns="http://www.w3.org/2000/svg"><path fill-rule="evenodd" clip-rule="evenodd" d="M43.787 0c0 12.236-9.532 21.412-21.787 21.412 12.528 0 21.787 9.177 21.787 20.8 0-11.745 7.49-20.8 20.426-20.8-12.936 0-20.426-9.176-20.426-21.412ZM11.953 19.064c0 6.784-5.23 11.872-11.953 11.872 6.873 0 11.954 5.089 11.954 11.534 0-6.513 4.109-11.534 11.206-11.534-7.097 0-11.207-5.088-11.207-11.872Zm6.91 33.53c6.724 0 11.954-5.033 11.954-11.743 0 6.71 4.109 11.742 11.206 11.742-7.097 0-11.206 4.966-11.206 11.407 0-6.374-5.08-11.407-11.954-11.407Z" fill="url(#a)"/><defs><linearGradient id="a" x1="53.916" y1="32" x2="7.582" y2="32" gradientUnits="userSpaceOnUse"><stop stop-color="#A066FF"/><stop offset="1" stop-color="#666CFF"/></linearGradient></defs></svg>