<svg version="1.1" id="Layer_1" xmlns="http://www.w3.org/2000/svg" x="0" y="0" viewBox="0 0 64 64" style="enable-background:new 0 0 64 64" xml:space="preserve"><style>.st0{fill:#fce1dc}.st1,.st2,.st5{fill:none;stroke:#3b5473}.st1{stroke-linejoin:round}.st2,.st5{stroke-miterlimit:10}.st5{stroke:#fff}</style><path class="st0" d="M49.28,35.2c-1.03-4.64-2.42-9.18-4.13-13.61c-0.04,0.02-0.06,0.06-0.1,0.08c-0.14,0.07-0.28,0.1-0.43,0.12	c-8.2,0.64-16.22,1.83-24.44,2.41c-0.33,0.03-0.64-0.14-0.8-0.43c-0.49-0.91-1.19-2.31-1.74-3.37c-0.21-0.41-0.05-0.92,0.36-1.13	c0.06-0.03,0.12-0.05,0.19-0.07c8.62-1.77,17.05-2.14,24.87-2.53l-0.34-0.76c-1.29-2.78-2.9-5.55-5.09-7.18	c-2.52-1.87-6.92-0.33-9.76-0.05c-6.03-0.42-12.07,0.55-17.66,2.84c-0.5,0.15-0.93,0.46-1.24,0.88c-0.25,0.71-0.18,1.5,0.21,2.15	c1.79,4.69,3.2,9.51,4.23,14.42c1.93,8.3,3.92,16.85,5.67,25.19c0.3,1.42,0.76,3,2.07,3.64c1.64,0.78,3.45-0.37,5.08-0.61	c0.86-0.13,1.71-0.24,2.57-0.36l20.84-3.33c0,0,0.39-0.07,0.61-0.24c0.07-0.05,0.15-0.11,0.22-0.17c0.67-0.85,0.99-1.92,0.89-3	C51.47,45.06,50.4,40.07,49.28,35.2z M42.86,51.1c-3.42,0.52-8.67,1.79-12.36,1.98c-0.33,0.03-0.64-0.14-0.8-0.43	c-0.27-0.67-0.5-1.65-0.62-2.04c-0.21-0.41-0.05-0.92,0.36-1.13c0.06-0.03,0.12-0.05,0.19-0.07c3.13-0.52,9.8-1.54,12.99-1.75	c0.31,0,0.42,0.28,0.61,0.52l0.3,0.78C43.81,49.55,44.05,50.84,42.86,51.1z M47.4,44.84c-0.52,0.55-1.25,0.85-2,0.82L26.26,47.9	C24.62,41.99,23,36.09,21.4,30.18c-0.32-0.8-0.32-1.7,0-2.5c0.59-0.74,1.47-1.19,2.41-1.23c4.23-0.77,8.51-1.3,12.8-1.59	c1.01-0.13,2.02-0.22,3.04-0.27c1.02-0.05,2.03-0.07,3.05-0.05c1.58,0.14,2.24,1.4,2.63,2.84c1.39,5.19,2.21,10.51,2.45,15.88	C47.83,43.81,47.69,44.37,47.4,44.84z"/><path class="st1" d="M49.42,9.92l1.94,1.67c0.62-2.25,1.55-4.41,2.76-6.41"/><path class="st2" d="M13.62,58.28c0.29-3.71-0.12-7.44-1.22-11c-0.29-1-0.78-2-1.76-2.25C9.79,44.89,9,45.47,8.86,46.31	c-0.02,0.15-0.03,0.31,0,0.47c0.25,0.79,1.09,1.23,1.88,0.99c0.17-0.05,0.33-0.14,0.47-0.25c0.47-0.58,0.68-1.33,0.58-2.07	c-0.08-4.81-1.32-9.53-3.62-13.75"/><path class="st1" d="M41.57,14.75c-0.48-1.32-2.77-4.89-3.7-5.94c-1.2-1.18-2.86-1.08-4.53-1c-4.58,0.21-9.15,0.68-13.7,1.26	c-1.09,0.13-11.75,2-11.47,2.64c8,18.61,11.73,36.52,12.3,43.32c0.13,1.44,1.4,2.51,2.84,2.38c0.05,0,0.11-0.01,0.16-0.02	c8.43-1.36,17.5-3,25.73-4.28c0.56-0.03,1.09-0.24,1.52-0.6c0.35-0.5,0.51-1.12,0.43-1.73c-0.19-4.31-0.6-8.61-1.24-12.88"/><path d="M43.73,24.97c0.12,0.09,0.24,0.19,0.34,0.31c0.35,0.44,0.6,0.96,0.72,1.51c1.49,5.5,2.45,11.13,2.88,16.82	c0.12,0.42,0.02,0.88-0.27,1.21c-0.24,0.16-0.52,0.23-0.8,0.2c-6.12,0.17-12.85,1.51-19.07,2.2c-0.79,0.09-1.53-0.39-1.77-1.15	c-1.68-5.21-2.81-11.1-4.58-16.19c-0.24-0.5-0.31-1.06-0.19-1.6c0.3-0.88,1.39-1.13,2.31-1.24l9.75-1.23	c1.63-0.2,3.25-0.42,4.88-0.61c1.32-0.16,2.63-0.59,3.93-0.68C42.51,24.46,43.17,24.62,43.73,24.97z" style="fill:none;stroke:#3b5473;stroke-linecap:round;stroke-miterlimit:10;stroke-dasharray:2"/><path class="st2" d="M43.7,17.32c0.32,0.69,0.46,1,0.85,1.78c0.29,0.6,0.03,1.33-0.57,1.61c-0.14,0.07-0.28,0.1-0.43,0.12	c-8.2,0.64-16.22,1.83-24.44,2.41c-0.33,0.03-0.64-0.14-0.8-0.43c-0.49-0.91-1.19-2.31-1.74-3.37c-0.21-0.41-0.05-0.92,0.36-1.13	c0.06-0.03,0.12-0.05,0.19-0.07c8.82-1.81,17.46-2.16,25.43-2.56c0.31,0,0.42,0.28,0.61,0.52"/><path d="M55.33,20.46c0.89,4.79,1.45,9.48,2,14.33c0.09,0.42-0.02,0.86-0.31,1.18c-0.24,0.15-0.53,0.22-0.81,0.2	c-6.12,0.16-12.85,1.51-19.06,2.19c-0.78,0.08-1.5-0.39-1.75-1.13c-1.67-5.22-2.81-11.1-4.58-16.2c-0.23-0.5-0.3-1.06-0.19-1.6	c0.3-0.87,1.4-1.13,2.31-1.24l9.73-1.22c1.62-0.2,3.25-0.42,4.87-0.61c1.32-0.16,2.63-0.59,3.93-0.67c0.66-0.07,1.32,0.1,1.87,0.46	c0.13,0.09,0.25,0.19,0.35,0.31c0.34,0.45,0.59,0.96,0.71,1.51" style="fill:#ff5e59;stroke:#3b5473;stroke-miterlimit:10"/><path class="st5" d="M46.17 22.34c1.05 2.4 1.3 4.36 1.94 6.52M42.03 27.71c.74-.15 2.16-.48 3.09-.62"/><path class="st5" d="M43.33,30.9c0,0-2.47-6.22-0.3-7.17c1.8-0.78,2.19,3.11,3.02,5.77"/><path class="st2" d="M43.52,49.55c0.29,0.6,0.53,1.89-0.67,2.15c-3.42,0.52-8.67,1.79-12.36,1.98c-0.33,0.03-0.64-0.14-0.8-0.43	c-0.27-0.67-0.5-1.65-0.62-2.04c-0.21-0.41-0.05-0.92,0.36-1.13c0.06-0.03,0.12-0.05,0.19-0.07c3.13-0.52,9.8-1.54,12.99-1.75	c0.31,0,0.42,0.28,0.61,0.52"/><path d="M45.33,27.38c-0.39-1.44-1.05-2.7-2.63-2.84c-1.02-0.02-2.04-0.01-3.05,0.05c-1.02,0.05-2.03,0.14-3.04,0.27	c-4.29,0.29-8.57,0.82-12.8,1.59c-0.94,0.04-1.82,0.49-2.41,1.23c-0.32,0.8-0.32,1.7,0,2.5c1.6,5.91,3.22,11.81,4.86,17.72	l19.14-2.24c0.75,0.03,1.48-0.27,2-0.82c0.29-0.47,0.42-1.03,0.38-1.58C47.54,37.89,46.72,32.57,45.33,27.38z" style="fill:none"/><path class="st0" d="M47.4,44.84c0.29-0.47,0.43-1.03,0.38-1.58C47.82,43.81,47.69,44.37,47.4,44.84z"/><path class="st1" d="M33.05,51.96c-0.09-0.31,0.21-0.61,0.53-0.67c0.34-0.02,0.68,0.02,1,0.12c0.31,0.09,0.65,0.04,0.92-0.15	c0.24-0.22,0.35-0.66,0.67-0.67c0.32-0.01,0.45,0.35,0.69,0.5c0.24,0.16,0.9-0.04,1.22-0.37c0.32-0.33,0.65-0.73,1.1-0.76	c0.5,0.01,0.93,0.35,1.05,0.83"/></svg>