<svg viewBox="0 0 64 64" xmlns="http://www.w3.org/2000/svg"><circle cx="32" cy="32" r="32" fill="#fff"/><mask id="a" fill="#fff"><path d="M32.001 3.43a28.572 28.572 0 1 1-17.75 50.96l5.195-6.553A20.208 20.208 0 0 0 52.01 29.154 20.21 20.21 0 0 0 32 11.79V3.429Z"/></mask><path d="M32.001 3.43a28.572 28.572 0 1 1-17.75 50.96l5.195-6.553A20.208 20.208 0 0 0 52.01 29.154 20.21 20.21 0 0 0 32 11.79V3.429Z" stroke="#48AD43" stroke-width="15.238" mask="url(#a)"/><path d="M26.834 37.917c3.12 0 5.005-1.715 5.005-4.303 0-2.571-1.834-3.926-4.063-3.926-1.508 0-2.314.583-2.862 1.423.068-2.074.805-3.24 2.142-3.24.875 0 1.183.429 1.303 1.029h3.223c-.257-2.4-1.886-3.617-4.646-3.617-3.12 0-5.502 2.314-5.502 6.308v.326c0 3.497 1.491 6 5.4 6Zm-.035-2.486c-1.011 0-1.662-.737-1.662-1.817 0-.977.65-1.731 1.662-1.731s1.629.737 1.629 1.765c0 1.046-.652 1.783-1.629 1.783ZM37.63 37.917c3.103 0 4.972-1.715 4.972-4.32 0-2.657-1.474-4.166-3.72-4.166-1.526 0-2.4.634-2.863 1.303l.069-2.709h5.725v-2.571h-8.262l-.258 7.217h2.092c.411-.48 1.029-.874 2.023-.874 1.063 0 1.663.651 1.663 1.748 0 .977-.463 1.732-1.475 1.732-1.131 0-1.474-.566-1.594-1.423h-3.189c.086 2.297 1.56 4.063 4.818 4.063Z" fill="#48AD43"/></svg>