<svg xmlns="http://www.w3.org/2000/svg" viewBox="0 0 64 64"><defs><style>.cls-3{stroke-miterlimit:10}.cls-6{stroke:#3b5473}.cls-3,.cls-6{fill:none}.cls-3{stroke:#fff}.cls-7{fill:#fce1dc;stroke-width:0}.cls-6{stroke-linejoin:round}</style></defs><path d="M8.367 4.541c.06 6.814.291 35.383-.013 38.887 0 0 7.445 3.117 14.198 4.502 0 0 13.505-5.021 16.968-4.848 0 0 14.717 2.943 16.795 4.329V7.241s-10.908-2.078-15.41-3.463c0 0-9.696 2.943-15.236 3.463 0 0-10.194-2.476-15.89-3.821a1.143 1.143 0 0 0-1.411 1.121Z" style="fill:#fff;stroke-width:0"/><path class="cls-7" d="m8.463 49.608-.064-39.521a.39.39 0 0 1 .47-.383l16.213 3.38c-.079 1.708-1.153 33.952-2.734 40.962 0 0-8.493-2.237-13.886-4.438ZM39.521 49.821l1.462-38.956 15.333 3.116c-.076 1.644.028 25.815-.018 38.399a1.099 1.099 0 0 1-1.385 1.058c-3.238-.86-11.357-2.972-15.392-3.617Z"/><path class="cls-6" d="M7.942 10.15c.051 5.671.283 33.372.026 38.768a.788.788 0 0 0 .496.776c1.793.72 7.822 3.056 13.438 4.238.15.031.296.022.44-.03 1.714-.63 13.37-4.865 16.682-4.773a.797.797 0 0 1 .146.017c.982.198 11.842 2.4 15.653 3.821.519.194 1.07-.202 1.07-.756V13.953a.799.799 0 0 0-.646-.787c-2.363-.46-10.606-2.093-14.545-3.272a.735.735 0 0 0-.438 0c-1.455.433-9.816 2.879-14.881 3.384a.77.77 0 0 1-.266-.018c-1.23-.299-10.962-2.66-16.197-3.892a.793.793 0 0 0-.979.783Z"/><path class="cls-6" d="M25.247 13.29s-1.388 29.292-2.154 36.078M40.789 10.148s-.055 15.273-.438 25.064"/><path d="M50.079 46.971c.265 1.898.265 3.768.675 6.453a1.72 1.72 0 0 1-.662 1.426 1.753 1.753 0 0 1-1.073.069c-2.924-.298-14.989-.467-17.997-.559a2.145 2.145 0 0 1-1.963-1.832c-.93-7.002.096-2.229-.988-9.101a3.344 3.344 0 0 1 .123-2.073c.579-1.035 2.033-1.115 3.213-1.047l7.392.462c2.101.115 8.315.008 9.395.074.908 0 1.338.323 1.853 3.286" style="fill:#ff5e59;stroke:#3b5473;stroke-miterlimit:10"/><path d="M36.042 40.77c0-1.882-.912-3.186 0-3.186s4.919-.221 5.416-.111.94.636.94 3.399" style="fill:none;stroke:#3b5473;stroke-miterlimit:10"/><path class="cls-3" d="m44.272 50.897-2.943-2.48"/><circle class="cls-3" cx="39.663" cy="46.986" r="2.667"/><path class="cls-6" d="m20.723 9.028 4.608 1.458c.322.102.666.112.993.029l5.375-1.358"/><path d="M25.669 23.849c5.748-2.55 11.686-7.941 10.245-12.078" style="stroke:#fce1dc;stroke-dasharray:0 2;fill:none;stroke-miterlimit:10"/><path d="M8.599 39.101c7.067.093 4.66-15.7 15.565-15.014" style="stroke-dasharray:0 2;stroke:#fff;fill:none;stroke-miterlimit:10"/></svg>