<svg xmlns="http://www.w3.org/2000/svg" viewBox="0 0 40 40"><path fill="#88BFFF" d="M14.5 8.5 7 13v19l8-4.5-.5-19Zm19-.5L26 12.5v19l8-4.5-.5-19ZM16 8.5l8 4V31l-8-4V8.5Z"/><path fill="#3190FF" fill-rule="evenodd" d="M15 6.25c.21 0 .408.052.582.143l9.379 4.69 8.169-4.668A1.25 1.25 0 0 1 35 7.5v20c0 .449-.24.863-.63 1.085l-8.73 4.99a1.245 1.245 0 0 1-.64.175h-.046a1.245 1.245 0 0 1-.536-.143l-9.379-4.69-8.169 4.668A1.25 1.25 0 0 1 5 32.5v-20c0-.449.24-.863.63-1.085l8.73-4.99c.188-.11.406-.175.64-.175Zm11.25 24.096 6.25-3.571V9.654l-6.25 3.571v17.121Zm-2.5-17.073v17.204l-7.5-3.75V9.523l7.5 3.75ZM7.5 13.225l6.25-3.571v17.12L7.5 30.347v-17.12Z" clip-rule="evenodd"/></svg>