<svg xmlns="http://www.w3.org/2000/svg" xml:space="preserve" id="Layer_1" x="0" y="0" style="enable-background:new 0 0 64 64" version="1.1" viewBox="0 0 64 64"><style>.st0{fill:#fce1dc}.st2{fill:none;stroke:#3b5473;stroke-miterlimit:10}</style><g id="Fill"><path d="M51 6.8c-.2.5-.3 1-.4 1.5-.6 2.4-.8 4.8-.7 7.3 2.7-2.3 5.5-7.8 7.5-10.9-1.7 0-4 2.8-5.7 2.9M43.3 10.3c-9.8 8.1-14.8 15.5-22.1 25.9-.6.7-1 1.6-1.2 2.5 0 1.3.4 2.5 1.1 3.5l2.5 4.3c.2.4.4 1.5.8 1.7.8.5 1.5-1.1 2.2-1.7.6-.6 1.1-1.3 1.3-2.1-.9-.2-1.5.1-2.3-.4-.8-.4-1.4-1.3-1.5-2.2 0-.8.3-1.6.7-2.3 5.5-10.2 12.4-19.1 19.9-28-.1-.1-.6-1-.7-1.2" class="st0"/><path d="M40.3 41c-.7-.1-1.4-.6-1.8-1.2-.4-.7-.6-1.4-.7-2.1-.2-.7-.2-1.5-.1-2.3.2-.8.9-1.3 1.7-1.3.7.1 1.1.8 1 1.4v.1c-.2.6-.9.9-1.5.6-.1 0-.1-.1-.2-.1-.3-.2-.5-.6-.6-.9-1-3.1.7-6.5 3.9-7.5.1 0 .1 0 .2-.1.6 1.9 1.5 3.8 2.5 5.5-2.3 2.2-1.9 4.5-3.4 7.3" style="fill:#ff5e59"/></g><g id="Stroke"><path d="M46.5 6.9C38.9 11.1 22 19.6 20.1 21.1c-2.9 2.4-8.4 6.7-10.5 9.7-.2.3 0 3.2-.1 3.6.1.6.4 1.2 1 1.5 1.5 1.2 8.6 3.2 9.1 4s3.5 8 4.6 8 .9-3.7.7-5.7c0-.6-.2-1.3-.6-1.8-.3-.4-.8-.5-1.2-.3-.1.1-.2.1-.2.2-.3.5-.2 1.1.1 1.6.3.4.8.6 1.2.8 1.9.7 13.5 6.9 13.9 5.4.8-3.6 7.3-15.5 8.8-19.7L49.5 14s.8-6.6 1.4-6.9 7.6-.8 7.3-3.2c-.2-1.3-7.5 8.5-7.5 8.5" class="st2"/><path d="M24.7 39.2c6-10 22.6-32.5 23.4-31.1.7 1.2-7.1 3.9-11.7 8.8-7 7.6-13.2 16.3-17.1 21.2M12 33.6c1.9-2.5 6.3-7.4 8-10.1M8.4 61.2c3.8-3.2 8.9-11.1 7.9-12.1s-2.2.5-2.3 1.6c0 1.1.6 2.1 1.7 2.5 1 .3 2.2.3 3.1-.2 1-.5 1.9-1.1 2.7-1.8" class="st2"/><path d="M37.9 20.4c2.7 3.5 4.6 7.8 6.7 12M20.1 21.1c4.1-.9 8.2-1.5 14.2-2.3" class="st2"/></g></svg>