<svg viewBox="0 0 265 193" xmlns="http://www.w3.org/2000/svg"><g fill="#fff"><path d="M107.85 62.25c1.21-1.17 1.82-2.66 1.82-4.45s-.59-3.29-1.76-4.49c-1.17-1.19-2.7-1.79-4.58-1.79h-7.78V64h7.59c1.92 0 3.49-.58 4.71-1.76v.01ZM152.3 61.53c1.15-1.07 1.72-2.46 1.72-4.17s-.56-3.06-1.69-4.17c-1.13-1.11-2.55-1.66-4.27-1.66h-8.09v11.6h7.9c1.8 0 3.27-.53 4.42-1.6h.01ZM34.02 169.61l-.05-.06c-.6-.71-1.14-1.47-1.65-2.2l-.44-.62-.33-.46c-.12-.17-.24-.32-.38-.48-.54-.65-1.12-1.16-1.75-1.54 1.46-.22 2.63-.71 3.47-1.46.93-.82 1.42-1.94 1.42-3.25 0-1.43-.56-2.61-1.63-3.39-1.06-.79-2.57-1.19-4.49-1.19h-7.61v.91h.46c.28 0 .49.07.65.23.26.25.39.76.39 1.54v11.83c0 .78-.13 1.29-.39 1.54-.16.15-.38.22-.68.22h-.43v.91h6v-.91h-.46c-.3 0-.5-.07-.66-.22-.27-.26-.39-.76-.39-1.55v-5.08h1.47s.09.05.12.07l.07.05s.04.03.07.04c.25.15.49.31.7.5.52.44.97 1.01 1.33 1.67.26.47.49.92.77 1.49l.02.05c.55 1.1 1.02 2.05 1.68 2.74.74.78 1.65 1.14 2.84 1.14h2.33v-.91l-.31-.05c-.91-.16-1.68-1.03-2.14-1.58v.02Zm-6.46-6.33h-2.48v-7.19h3.12c1.96 0 2.99 1.2 2.99 3.46s-1.36 3.72-3.63 3.72v.01ZM50.98 168.58c-.43.97-.71 1.34-.84 1.48-.63.68-1.55.97-2.95.97h-3.2v-7.62h1.99c1.68 0 2.46.37 2.88 1.35l.16.35h.91v-4.33h-.91l-.15.32c-.41.85-1.22 1.18-2.88 1.18H44v-6.2h2.69c2.04 0 3.16.62 3.76 2.09l.1.23h.9v-3.44H39.5v.9h.46c.29 0 .5.07.66.22.27.26.39.75.39 1.54v11.83c0 .78-.13 1.28-.39 1.54-.16.15-.38.22-.67.22h-.45v.91h12.47v-3.73h-.91l-.08.17v.02ZM61.94 154.77c-1.37 0-2.56.28-3.53.84-.53.3-1.03.72-1.42 1.19-1.22 1.46-1.33 3.72-.23 5.14 1.15 1.48 3.14 2.18 4.89 2.8l.74.26h.01c.65.23 1.39.49 2.03.91 1.16.75 1.97 2.16 1.17 3.6-.7 1.25-2.31 1.7-3.58 1.7-.19 0-.37 0-.55-.03-.52-.05-1.05-.19-1.52-.4-1.38-.61-2.36-1.96-3-4.12l-.08-.27h-.86v4.88h.77s.19-.28.49-.16c.08.03 1.28.57 2.68.93.72.19 1.47.28 2.23.28 1.25 0 2.47-.27 3.51-.77.72-.35 2.03-1.15 2.61-2.48.27-.62.4-1.22.4-1.83 0-1.13-.45-2.16-1.29-2.97-1.3-1.26-3.02-1.83-4.67-2.38l-.41-.14c-1.09-.37-3.65-1.25-3.65-3.28 0-1.33 1.12-2.22 2.16-2.47.33-.08.66-.12 1.02-.12.33 0 .69.03 1.06.1.79.15 1.47.49 1.91.98.6.66 1.3 2.01 1.52 2.66l.09.25h.85v-4.5h-.77s-.19.28-.49.16c0 0-.55-.19-.77-.26-1.08-.33-2.22-.51-3.29-.51h-.02l-.01.01ZM77.28 169.22c-.29-.52-.5-1.26-.61-2.2-.07-.62-.11-1.26-.11-2.02v-7.34c0-.23.01-.46.04-.68.02-.19.06-.36.12-.5.05-.13.11-.24.18-.33.06-.08.14-.14.22-.18.13-.06.29-.09.45-.1h.5v-.91h-5.99v.91h.56c.57.04.95.36.95 1.76v2.4c0 1.44 0 3.33.02 4.15v.03c.02 1.18.04 2.52.34 3.76.16.68.41 1.29.75 1.82.72 1.1 1.9 1.9 3.32 2.25.77.19 1.63.29 2.41.29 1.68 0 3.16-.42 4.06-1.14.94-.76 1.57-1.67 1.89-2.73.32-1.05.34-2.49.34-4.4v-6.17c0-.9.15-1.46.46-1.75.15-.15.35-.23.61-.25H88.44v-.91H83.6v.91h.51c.38 0 .64.09.84.28.31.3.46.86.46 1.74v6.31c0 1.76 0 3.28-.28 4.06-.29.82-.85 1.51-1.66 2.03-.87.58-2.06.7-2.91.7-.8 0-1.47-.17-2.01-.5-.55-.34-.98-.77-1.26-1.29h-.01ZM91.42 155.88h.46c.47 0 .92.16.97 1.29v12.67c-.02.9-.43 1.41-1.1 1.41h-.45v.91h4.35v-.91h-.45c-.68 0-1.08-.51-1.1-1.39v-.05l-.01-10.5 5.62 12.08.1.22h1.01l5.77-13.46v11.34c0 .79-.13 1.29-.39 1.54-.15.15-.37.22-.66.22h-.46v.91h5.99v-.91h-.46c-.29 0-.5-.07-.66-.23-.26-.25-.39-.76-.39-1.54v-11.83c0-.78.12-1.29.39-1.54.15-.15.38-.22.69-.22h.43v-.9h-4.48l-5.38 12.58-5.59-12.35-.1-.23h-4.1v.91-.02ZM126.7 168.41h-.91l-.08.17c-.43.97-.71 1.34-.84 1.48-.63.68-1.55.97-2.95.97h-3.2v-7.62h1.99c1.68 0 2.46.37 2.88 1.35l.16.35h.91v-4.33h-.91l-.15.32c-.41.85-1.22 1.18-2.88 1.18h-1.99v-6.2h2.69c2.04 0 3.16.62 3.76 2.09l.1.23h.9v-3.44h-11.95v.9h.46c.29 0 .5.07.66.22.27.26.39.75.39 1.54v11.83c0 .78-.13 1.28-.39 1.54-.16.15-.38.22-.67.22h-.45v.91h12.47v-3.73.02ZM157.71 155.88h.56c.47 0 .75.08.88.24.16.22.14.62-.07 1.3 0 .03-.27.89-.64 2.12-.41 1.35-.96 3.14-1.43 4.7l-.15.5c-.31 1.02-.58 1.9-.74 2.44l-3.09-9.98c-.09-.34-.08-.62.02-.86.04-.09.21-.46.85-.46h.31v-.9h-6.11v.9h.41c.64 0 1.11.54 1.56 1.81l1.06 3.34-2.55 6.68c-.9-2.54-3.43-9.68-3.48-9.83-.24-.77-.24-1.41 0-1.74.12-.17.32-.26.59-.26h.47v-.9h-6.11v.9h.41c.62 0 1.08.53 1.53 1.75l4.97 14.26.09.25h1.13l3.53-9.31 2.89 9.05.09.26h1.18l4.53-14.88c.36-.96.84-1.39 1.56-1.39h.46v-.9h-4.7v.9l-.01.01ZM178.74 169.55c-.6-.71-1.14-1.47-1.65-2.2l-.44-.62-.33-.46c-.12-.17-.24-.32-.38-.48-.54-.65-1.12-1.16-1.75-1.54 1.46-.22 2.63-.71 3.47-1.46.93-.82 1.42-1.94 1.42-3.25 0-1.43-.56-2.61-1.63-3.39-1.06-.79-2.57-1.19-4.49-1.19h-7.61v.91h.46c.28 0 .49.07.65.23.26.25.39.76.39 1.54v11.83c0 .78-.13 1.29-.39 1.54-.16.15-.38.22-.68.22h-.43v.91h6v-.91h-.46c-.3 0-.5-.07-.66-.22-.27-.26-.39-.76-.39-1.55v-5.08h1.47s.09.05.12.07l.07.05s.04.03.07.04c.25.15.49.31.7.5.52.44.97 1.01 1.33 1.67.26.47.49.92.77 1.49l.02.05c.55 1.1 1.02 2.05 1.68 2.74.74.78 1.65 1.14 2.84 1.14h2.33v-.91l-.31-.05c-.91-.16-1.68-1.03-2.14-1.58l-.05-.06v.02Zm-6.41-6.27h-2.48v-7.19h3.12c1.96 0 3 1.2 3 3.46s-1.36 3.72-3.63 3.72l-.01.01ZM184.25 155.88h.46c.29 0 .5.07.66.22.27.26.39.75.39 1.54v11.83c0 .78-.13 1.29-.39 1.54-.16.15-.38.22-.71.22h-.4v.91h5.99v-.91h-.46c-.29 0-.5-.07-.65-.22-.26-.25-.39-.76-.39-1.54v-11.83c0-.78.13-1.29.39-1.54.15-.15.37-.22.65-.22h.47v-.91h-5.99v.91h-.02ZM193.04 158.81h.9l.22-.52c.63-1.55 1.72-2.21 3.64-2.21h1.83v13.39c0 .79-.13 1.28-.39 1.55-.16.15-.37.22-.68.22h-.44v.91h5.99v-.91h-.46c-.3 0-.5-.07-.66-.22-.26-.25-.39-.76-.39-1.54v-13.39h1.82c1.95 0 3.01.64 3.65 2.22l.22.51h.91v-3.84h-16.18v3.84l.02-.01ZM223.59 168.58c-.43.97-.71 1.34-.84 1.48-.63.68-1.55.97-2.95.97h-3.2v-7.62h1.99c1.68 0 2.46.37 2.88 1.35l.16.35h.91v-4.33h-.91l-.15.32c-.41.85-1.22 1.18-2.88 1.18h-1.99v-6.2h2.69c2.04 0 3.16.62 3.76 2.09l.1.23h.9v-3.44h-11.95v.9h.46c.29 0 .5.07.66.22.27.26.39.75.39 1.54v11.83c0 .78-.13 1.28-.39 1.54-.16.15-.38.22-.67.22h-.45v.91h12.47v-3.73h-.91l-.08.17v.02ZM241.52 169.61l-.05-.06c-.6-.71-1.14-1.47-1.65-2.2l-.44-.62-.33-.46c-.12-.17-.24-.32-.38-.48-.54-.65-1.12-1.16-1.75-1.54 1.46-.22 2.63-.71 3.47-1.46.93-.82 1.42-1.94 1.42-3.25 0-1.43-.56-2.61-1.63-3.39-1.06-.79-2.57-1.19-4.49-1.19h-7.61v.91h.46c.28 0 .49.07.65.23.26.25.39.76.39 1.54v11.83c0 .78-.13 1.29-.39 1.54-.16.15-.38.22-.68.22h-.43v.91h6v-.91h-.46c-.3 0-.5-.07-.66-.22-.27-.26-.39-.76-.39-1.55v-5.08h1.47s.09.05.12.07l.07.05s.04.03.07.04c.25.15.49.31.7.5.52.44.97 1.01 1.33 1.67.26.47.49.92.77 1.49l.02.05c.55 1.1 1.02 2.05 1.68 2.74.74.78 1.65 1.14 2.84 1.14h2.33v-.91l-.31-.05c-.91-.16-1.68-1.03-2.14-1.58v.02Zm-6.45-6.33h-2.48v-7.19h3.12c1.96 0 3 1.2 3 3.46s-1.36 3.72-3.63 3.72l-.01.01ZM22.99 141.82c1.14.62 2.51.74 3.45.74h.4c.64-.03 1.28-.17 1.88-.32.18-.04.52-.16.87-.28l.12-.04.46-1.86.05-.23-.52-.14-.2.39c-.11.19-.22.36-.34.51-.23.29-.47.52-.71.69-.3.2-.57.33-.84.41-.36.1-.73.15-1.13.15-.52 0-1.03-.09-1.47-.25-.23-.09-.44-.2-.65-.33-.6-.37-1.09-.97-1.45-1.77-.33-.71-.54-1.71-.56-2.68-.04-1.51.4-2.86 1.22-3.7.65-.67 1.5-1 2.53-1 .6 0 1.22.17 1.76.48.58.34.98 1.07 1.29 1.74l.02.03c.04.09.08.17.11.25l.06.16h.58v-2.94h-.55s-.06.11-.18.11c-.06 0-.13-.01-.22-.04-.06-.02-.13-.03-.18-.05-.03 0-.06-.02-.09-.03l-.06-.02c-.24-.07-.48-.14-.72-.19a8.389 8.389 0 0 0-1.97-.25c-.76 0-1.86.12-2.81.68a5.748 5.748 0 0 0-2.79 4.75c-.05 1.37.38 2.77 1.15 3.74.42.53.94.97 1.5 1.28l-.01.01ZM40.15 140.06h-.58l-.05.11c-.28.62-.45.85-.54.94-.4.43-.99.62-1.88.62h-2.04v-4.85h1.27c1.07 0 1.57.23 1.83.86l.1.22h.58v-2.75h-.58l-.1.21c-.26.54-.78.75-1.83.75h-1.27v-3.95h1.71c1.3 0 2.01.4 2.39 1.33l.06.15h.58v-2.19h-7.61v.58h.29c.18 0 .32.05.42.14.17.17.25.48.25.98v7.53c0 .5-.08.82-.25.98-.1.1-.24.14-.42.14h-.29v.58h7.94v-2.38h.02ZM46.21 141.86h-.29c-.19 0-.32-.04-.42-.14-.17-.17-.25-.48-.25-.99v-3.23h.94s.06.03.07.04l.05.03s.03.02.04.02c.16.09.31.2.45.32.33.28.62.64.85 1.06.17.3.31.59.49.95v.03c.36.7.66 1.3 1.08 1.75.47.5 1.05.73 1.81.73h1.48v-.58l-.2-.03c-.58-.1-1.07-.66-1.36-1l-.03-.04c-.38-.45-.72-.93-1.05-1.4l-.28-.4-.21-.29c-.08-.11-.15-.21-.24-.31-.35-.42-.71-.74-1.11-.98.93-.14 1.67-.45 2.21-.93.59-.52.91-1.24.91-2.07 0-.91-.36-1.66-1.04-2.16-.68-.5-1.64-.76-2.86-.76h-4.84v.58h.29c.18 0 .31.05.42.14.17.16.25.48.25.98v7.53c0 .5-.08.82-.25.98-.1.1-.24.14-.44.14h-.27v.58h3.82v-.58l-.02.03Zm-.96-9.64h1.99c1.25 0 1.91.76 1.91 2.21s-.86 2.37-2.31 2.37h-1.58v-4.58h-.01ZM54.51 133.62c.4-.99 1.1-1.41 2.32-1.41h1.16v8.52c0 .5-.08.82-.25.98-.1.1-.23.14-.43.14h-.28v.58h3.82v-.58h-.29c-.19 0-.32-.04-.42-.14-.17-.16-.25-.48-.25-.98v-8.52h1.16c1.24 0 1.92.41 2.32 1.41l.14.33h.58v-2.45h-10.3v2.44h.58l.14-.33v.01ZM69.74 141.86h-.29c-.18 0-.32-.05-.42-.14-.17-.16-.25-.48-.25-.98v-7.53c0-.5.08-.82.25-.98.1-.09.24-.14.41-.14h.3v-.58h-3.81v.58h.29c.18 0 .32.05.42.14.17.17.25.48.25.98v7.53c0 .5-.08.82-.25.98-.1.1-.25.14-.45.14h-.26v.58h3.81v-.58ZM75.57 141.86h-.29c-.19 0-.32-.05-.42-.14-.17-.16-.25-.48-.25-.98v-3.87h1.1c1.11 0 1.75.27 1.99.86l.09.23h.58v-2.75h-.58l-.09.21c-.24.5-.81.74-1.79.75H74.6v-3.95h2.02c1.28 0 1.93.38 2.32 1.34l.14.33h.58v-2.38h-7.91v.58h.29c.18 0 .32.05.42.14.17.17.25.48.25.98v7.53c0 .5-.08.82-.25.98-.1.1-.24.14-.45.14h-.26v.58h3.81v-.58h.01ZM85.35 141.86h-.29c-.18 0-.32-.05-.42-.14-.17-.16-.25-.48-.25-.98v-7.53c0-.5.08-.82.25-.98.1-.09.24-.14.41-.14h.3v-.58h-3.81v.58h.29c.18 0 .32.05.42.14.17.17.25.48.25.98v7.53c0 .5-.08.82-.25.98-.1.1-.25.14-.45.14h-.26v.58h3.81v-.58ZM95.3 140.06h-.58l-.05.11c-.28.62-.45.85-.54.94-.4.43-.99.62-1.88.62h-2.04v-4.85h1.27c1.07 0 1.57.23 1.83.86l.1.22h.58v-2.75h-.58l-.1.21c-.26.54-.78.75-1.83.75h-1.27v-3.95h1.71c1.3 0 2.01.4 2.39 1.33l.06.15h.58v-2.19h-7.61v.58h.29c.18 0 .32.05.42.14.17.17.25.48.25.98v7.53c0 .5-.08.82-.25.98-.1.1-.24.14-.42.14h-.29v.58h7.94v-2.38h.02ZM104.52 142.07c.66-.24 1.22-.6 1.68-1.07.46-.47.8-1.05 1.04-1.73.23-.68.35-1.45.35-2.3 0-.85-.13-1.63-.39-2.31a4.65 4.65 0 0 0-1.15-1.72c-.5-.47-1.13-.83-1.85-1.07-.73-.24-1.57-.36-2.49-.36h-4.16v.58h.29c.18 0 .32.05.42.14.17.16.25.48.25.98v7.53c0 .5-.08.82-.25.98-.1.1-.24.14-.42.14h-.29v.58h4.74c.83 0 1.58-.12 2.24-.36l-.01-.01Zm-4.12-9.85h1.3c2.53 0 3.98 1.73 3.98 4.76 0 1.5-.31 2.72-.9 3.53-.59.81-1.43 1.23-2.5 1.23h-1.88v-9.52ZM119.81 141.86h-.29c-.18 0-.32-.05-.42-.14-.17-.17-.25-.48-.25-.99v-3.23h1.58c1.31 0 2.39-.28 3.14-.81.76-.54 1.16-1.32 1.16-2.27 0-.77-.25-1.41-.73-1.9-.66-.66-1.75-1.01-3.15-1.01H116v.58h.29c.18 0 .32.05.42.14.17.16.25.48.25.98v7.53c0 .5-.08.82-.25.98-.1.1-.25.14-.45.14H116v.58h3.82v-.58h-.01Zm-.96-9.64h1.99c1.25 0 1.9.76 1.9 2.2 0 .75-.21 1.36-.62 1.77-.41.41-.98.61-1.69.61h-1.58v-4.58ZM130.46 141.86h-.29c-.19 0-.32-.04-.42-.14-.17-.17-.25-.48-.25-.99v-3.23h.94s.05.03.07.04l.05.03s.03.02.04.02c.16.09.31.2.45.32.33.28.62.64.85 1.06.17.3.31.59.49.95v.03c.36.7.66 1.3 1.08 1.75.47.5 1.05.73 1.81.73h1.48v-.58l-.2-.03c-.58-.1-1.07-.66-1.36-1l-.03-.04c-.38-.45-.72-.93-1.05-1.4l-.28-.4-.21-.29c-.08-.11-.15-.21-.24-.31-.35-.42-.71-.74-1.11-.98.93-.14 1.67-.45 2.21-.93.59-.52.9-1.24.9-2.07 0-.91-.36-1.66-1.04-2.16-.68-.5-1.64-.76-2.86-.76h-4.84v.58h.29c.18 0 .31.05.42.14.17.16.25.48.25.98v7.53c0 .5-.08.82-.25.98-.1.1-.24.14-.44.14h-.27v.58h3.82v-.58l-.01.03Zm-.96-9.64h1.99c1.25 0 1.91.76 1.91 2.21s-.86 2.37-2.31 2.37h-1.58v-4.58h-.01ZM143.38 142.56c1.51 0 2.82-.54 3.88-1.61s1.6-2.43 1.6-4.05c0-1.62-.54-2.9-1.59-3.95-1.05-1.05-2.32-1.58-3.76-1.58s-2.71.47-3.75 1.4c-1.2 1.07-1.81 2.47-1.81 4.16s.53 3.02 1.57 4.06c1.04 1.04 2.34 1.57 3.87 1.57h-.01Zm-2.32-9.45c.57-.68 1.34-1.02 2.29-1.02 1.01 0 1.81.34 2.38 1.02.73.88 1.09 2.22 1.09 4 0 1.64-.33 2.86-.98 3.61-.65.75-1.49 1.13-2.48 1.13-.93 0-1.69-.35-2.26-1.03-.75-.91-1.13-2.23-1.13-3.93 0-1.7.37-2.93 1.09-3.78ZM154.65 141.86h-.29c-.18 0-.32-.05-.42-.14-.17-.16-.25-.48-.25-.98v-3.87h1.1c1.11 0 1.75.27 1.99.86l.1.23h.58v-2.75h-.58l-.09.21c-.24.5-.81.74-1.79.75h-1.31v-3.95h2.02c1.28 0 1.93.38 2.32 1.34l.14.33h.58v-2.38h-7.91v.58h.29c.18 0 .32.05.42.14.17.17.25.48.25.98v7.53c0 .5-.08.82-.25.98-.1.1-.24.14-.45.14h-.26v.58h3.81v-.58ZM168.55 140.06h-.58l-.05.11c-.28.62-.45.85-.54.94-.4.43-.99.62-1.88.62h-2.04v-4.85h1.27c1.07 0 1.57.23 1.83.86l.1.22h.58v-2.75h-.58l-.1.21c-.26.54-.78.75-1.84.75h-1.27v-3.95h1.71c1.3 0 2.01.4 2.39 1.33l.06.15h.58v-2.19h-7.61v.58h.29c.18 0 .32.05.42.14.17.17.25.48.25.98v7.53c0 .5-.08.82-.25.98-.1.1-.24.14-.43.14h-.29v.58h7.94v-2.38h.04ZM174.72 137.73l.47.17c.41.15.88.31 1.29.58.74.48 1.25 1.37.75 2.29-.44.8-1.47 1.08-2.28 1.08-.12 0-.24 0-.35-.02-.33-.03-.67-.12-.97-.25-.88-.39-1.5-1.25-1.91-2.62l-.05-.17h-.54v3.11h.49s.12-.18.31-.1c.05.02.81.36 1.71.59.46.12.94.18 1.42.18.8 0 1.57-.17 2.24-.49.46-.23 1.29-.73 1.66-1.58.17-.39.25-.78.25-1.17 0-.72-.28-1.38-.82-1.89-.83-.8-1.92-1.16-2.98-1.52l-.26-.09c-.7-.24-2.33-.8-2.33-2.09 0-.85.71-1.41 1.37-1.57.21-.05.42-.08.65-.08.21 0 .44.02.68.07.5.09.94.32 1.21.62.38.42.83 1.28.97 1.69l.06.16h.54v-2.87h-.49s-.12.18-.31.1c0 0-.35-.12-.49-.17-.68-.21-1.41-.33-2.09-.33-.87 0-1.63.18-2.25.54-.33.19-.66.46-.9.75-.78.93-.84 2.37-.15 3.27.73.94 2 1.39 3.11 1.78l-.01.03ZM185.29 137.73l.47.17c.41.15.88.31 1.29.58.74.48 1.25 1.37.75 2.29-.44.8-1.47 1.08-2.28 1.08-.12 0-.24 0-.35-.02-.33-.03-.67-.12-.97-.25-.88-.39-1.5-1.25-1.91-2.62l-.05-.17h-.54v3.11h.49s.12-.18.31-.1c.05.02.81.36 1.71.59.46.12.94.18 1.42.18.8 0 1.57-.17 2.24-.49.46-.23 1.29-.73 1.66-1.58.17-.39.25-.78.25-1.17 0-.72-.28-1.38-.82-1.89-.83-.8-1.92-1.16-2.98-1.52l-.26-.09c-.7-.24-2.33-.8-2.33-2.09 0-.85.71-1.41 1.37-1.57.21-.05.42-.08.65-.08.21 0 .44.02.68.07.5.09.94.32 1.21.62.38.42.83 1.28.97 1.69l.06.16h.54v-2.87h-.49s-.12.18-.31.1c0 0-.35-.12-.49-.17-.68-.21-1.41-.33-2.09-.33-.87 0-1.63.18-2.25.54-.33.19-.66.46-.9.75-.78.93-.84 2.37-.15 3.27.73.94 2 1.39 3.11 1.78l-.01.03ZM195.74 141.86h-.29c-.18 0-.32-.05-.42-.14-.17-.16-.25-.48-.25-.98v-7.53c0-.5.08-.82.25-.98.1-.09.24-.14.41-.14h.3v-.58h-3.81v.58h.29c.18 0 .32.05.42.14.17.17.25.48.25.98v7.53c0 .5-.08.82-.25.98-.1.1-.24.14-.45.14h-.26v.58h3.81v-.58ZM203.15 142.56c1.51 0 2.82-.54 3.88-1.61s1.6-2.43 1.6-4.05c0-1.62-.54-2.9-1.59-3.95-1.05-1.05-2.32-1.58-3.76-1.58s-2.71.47-3.75 1.4c-1.2 1.07-1.81 2.47-1.81 4.16s.53 3.02 1.57 4.06c1.04 1.04 2.34 1.57 3.87 1.57h-.01Zm-2.32-9.45c.57-.68 1.34-1.02 2.29-1.02 1.01 0 1.81.34 2.38 1.02.73.88 1.09 2.22 1.09 4 0 1.64-.33 2.86-.98 3.61-.65.75-1.49 1.13-2.48 1.13-.93 0-1.69-.35-2.26-1.03-.75-.91-1.13-2.23-1.13-3.93 0-1.7.37-2.93 1.09-3.78ZM213.3 141.86h-.29c-.18 0-.31-.05-.42-.15-.17-.17-.25-.47-.25-.97v-7.33l5.91 8.06.68.97h.86v-9.24c.01-.53.13-.88.24-.98.1-.09.23-.14.43-.14h.29v-.58h-2.7v.58h.29c.19 0 .32.04.42.14.17.17.25.48.25.98v6.26l-5.72-7.86-.07-.1h-2.6v.58h.29c.19 0 .32.04.42.14.17.17.25.48.25.98v7.53c0 .5-.08.82-.25.98-.1.1-.24.14-.44.14h-.27v.58h2.7v-.58l-.02.01ZM225.67 141.86h-.29c-.38 0-.5-.11-.56-.19-.13-.18-.12-.51.05-1.01l.82-2.25h3.55l1.08 2.56c.13.35.15.6.05.73-.06.08-.16.13-.32.15h-.49v.58h4.23v-.58H233.49c-.05 0-.1-.01-.13-.02-.03 0-.05 0-.07-.01-.39-.1-.7-.44-.99-1.08l-3.95-9.09-.06-.14h-.87l-3.42 9.24c-.31.77-.67 1.12-1.16 1.12h-.28v.58h3.11v-.59Zm1.65-7.96 1.6 3.81h-2.99l1.38-3.81h.01ZM243.53 142.44v-2.38h-.49l-.14.33c-.39.96-1.04 1.34-2.32 1.34h-2.08v-8.52c0-.5.08-.82.25-.98.1-.09.24-.14.41-.14h.3v-.58h-3.81v.58h.29c.18 0 .32.05.42.14.17.17.25.48.25.98v7.53c0 .5-.08.82-.25.98-.1.1-.24.14-.45.14h-.26v.58h7.89-.01ZM46.32 149.96l-1.02 3.05h.75l2.91-3.05h-2.64ZM118.88 153.01h.76l2.91-3.05h-2.65l-1.02 3.05Z"/><path d="M247.95 0H16.5C7.4 0 0 7.4 0 16.5v160c0 9.1 7.4 16.5 16.5 16.5h231.45c9.1 0 16.5-7.4 16.5-16.5v-160c0-9.1-7.4-16.5-16.5-16.5Zm-66.02 42.18 6.21 28.35 7.65-28.35h9.91l7.84 28.04 6.08-28.04h11.42L219.5 84.15h-11.6l-7.15-26.53-7.28 26.53h-11.6l-11.35-41.97h11.42-.01Zm-52.87 0h21.2c4.27 0 7.79 1.38 10.57 4.14 2.78 2.76 4.17 6.25 4.17 10.48 0 3.05-.7 5.75-2.1 8.09-1.4 2.34-3.33 4.08-5.8 5.21l8.72 14.05h-12.99l-6.96-12.17h-5.9v12.17h-10.91V42.18Zm-44.42 0h20.26c4.64 0 8.44 1.44 11.38 4.33 2.95 2.89 4.42 6.63 4.42 11.23 0 4.6-1.51 8.51-4.52 11.35s-7.03 4.27-12.04 4.27h-8.59v10.79H84.63V42.18h.01Zm-43.43 5.45c4.12-4.14 9.36-6.21 15.71-6.21 4.47 0 8.48 1.09 12.01 3.26 3.53 2.17 6.07 5.1 7.62 8.78l-9.47 4.83c-.88-2.05-2.24-3.69-4.08-4.92-1.84-1.23-3.93-1.85-6.27-1.85-3.18 0-5.82 1.11-7.93 3.32-2.11 2.22-3.17 5-3.17 8.34s1.07 6.07 3.2 8.31 4.79 3.36 7.97 3.36c2.34 0 4.45-.63 6.34-1.88 1.88-1.25 3.24-2.95 4.08-5.08l9.72 4.45c-1.55 3.81-4.12 6.85-7.71 9.13-3.6 2.28-7.7 3.42-12.29 3.42-6.32 0-11.54-2.06-15.68-6.18-4.14-4.12-6.21-9.29-6.21-15.53s2.06-11.42 6.18-15.56l-.02.01ZM261.45 176.5c0 7.44-6.06 13.5-13.5 13.5H16.5C9.06 190 3 183.94 3 176.5v-58.64h258.45v58.64Z"/></g></svg>