<svg width="91" height="18" xmlns="http://www.w3.org/2000/svg"><path d="M46.809 8.74c-.752 0-1.294.247-1.84.497v5.673c.524.05.828.05 1.325.05 1.8 0 2.05-.824 2.05-1.98v-2.708c0-.847-.281-1.532-1.535-1.532zM34.84 8.431c-1.249 0-1.536.685-1.536 1.536v.48h3.072v-.48c0-.85-.286-1.536-1.536-1.536zm-23.18 5.906c0 .672.318 1.021 1.016 1.021.752 0 1.196-.246 1.746-.497v-1.348H12.78c-.779.005-1.12.148-1.12.824zM58.45 8.74c-1.253 0-1.687.685-1.687 1.536v3.108c0 .855.434 1.54 1.688 1.54 1.249 0 1.688-.685 1.688-1.54v-3.108c-.005-.85-.439-1.536-1.688-1.536zM5.52 17.82H1.84V8.91H0V5.84h1.84V3.994C1.84 1.491 2.88 0 5.83 0h2.454v3.072H6.748c-1.151 0-1.223.43-1.223 1.231l-.004 1.536H8.3L7.975 8.91H5.516l.005 8.91zm12.583.023h-3.067l-.135-.774a7.04 7.04 0 01-3.474.9c-2.252 0-3.448-1.505-3.448-3.582 0-2.454 1.397-3.327 3.896-3.327h2.543v-.529c0-1.253-.143-1.62-2.069-1.62H9.201l.31-3.072h3.438c4.223 0 5.15 1.334 5.15 4.715l.004 7.29zm10.433-8.709c-1.908-.327-2.458-.398-3.376-.398-1.653 0-2.15.363-2.15 1.764v2.65c0 1.402.497 1.77 2.15 1.77.918 0 1.468-.072 3.376-.404v2.996c-1.67.376-2.763.475-3.68.475-3.955 0-5.526-2.078-5.526-5.083v-2.149c0-3.004 1.571-5.086 5.525-5.086.923 0 2.01.098 3.68.474v2.991zm11.52 3.77h-6.752v.247c0 1.401.497 1.768 2.15 1.768 1.482 0 2.386-.071 4.294-.403v2.996c-1.84.376-2.794.475-4.599.475-3.953 0-5.525-2.078-5.525-5.083v-2.458c0-2.628 1.164-4.777 5.216-4.777 4.053 0 5.217 2.122 5.217 4.777v2.458zm11.97.054c0 2.902-.829 5.02-5.853 5.02-1.813 0-2.879-.162-4.88-.466V.922l3.68-.613v5.803c.797-.296 1.827-.448 2.763-.448 3.68 0 4.294 1.652 4.294 4.303l-.005 2.991zm11.793.067c0 2.503-1.034 4.93-5.36 4.93-4.325 0-5.377-2.427-5.377-4.93v-2.418c0-2.503 1.052-4.934 5.378-4.934 4.325 0 5.36 2.427 5.36 4.934v2.418zm11.79 0c0 2.503-1.034 4.93-5.36 4.93-4.325 0-5.377-2.427-5.377-4.93v-2.418c0-2.503 1.052-4.934 5.377-4.934 4.326 0 5.36 2.427 5.36 4.934v2.418zm12.098 4.796h-3.99l-3.37-5.633v5.633h-3.681V.922l3.68-.613v10.876l3.372-5.346h3.99l-3.686 5.834 3.685 6.148zM70.24 8.74c-1.249 0-1.683.684-1.683 1.535v3.108c0 .855.434 1.54 1.683 1.54 1.25 0 1.693-.685 1.693-1.54v-3.108c-.005-.85-.443-1.536-1.693-1.536zm19.567 6.975c.618 0 1.115.506 1.115 1.138 0 .64-.492 1.142-1.119 1.142a1.126 1.126 0 01-1.124-1.142 1.13 1.13 0 011.124-1.138h.004zm-.004.18c-.502 0-.909.43-.909.958 0 .542.407.962.913.962.506.005.91-.425.91-.958 0-.533-.404-.967-.91-.967h-.004v.005zm-.21 1.62h-.202V16.25c.108-.013.206-.031.358-.031.193 0 .318.04.394.094.076.058.117.143.117.264 0 .166-.112.269-.247.31v.008c.112.022.188.12.21.309.032.197.06.273.081.313h-.21c-.031-.04-.063-.156-.085-.322-.031-.161-.112-.224-.273-.224h-.139l-.004.546zm0-.703h.147c.166 0 .31-.062.31-.219 0-.112-.081-.224-.31-.224a1.12 1.12 0 00-.147.01v.433z" fill="#FFF"/></svg>