<svg width="62" height="20" xmlns="http://www.w3.org/2000/svg"><path d="M7.562.002h.543c1.89.042 3.748.8 5.082 2.147-.492.505-.996.987-1.478 1.489-.75-.678-1.653-1.202-2.64-1.386-1.458-.308-3.027-.032-4.251.8-1.335.875-2.238 2.353-2.434 3.935-.215 1.561.226 3.204 1.244 4.416a5.498 5.498 0 004.005 1.97c1.437.084 2.937-.36 3.985-1.366.823-.707 1.202-1.787 1.324-2.834-1.703 0-3.41.01-5.113 0V7.058h7.177c.37 2.269-.164 4.824-1.89 6.448-1.15 1.15-2.741 1.828-4.364 1.96-1.572.155-3.195-.144-4.59-.903a7.899 7.899 0 01-3.665-4.179 7.57 7.57 0 01-.051-5.126A7.824 7.824 0 013.27 1.51C4.51.597 6.022.093 7.56.002zm41.175.534h2.198V15.2c-.73 0-1.469.01-2.198-.01.012-4.88 0-9.768 0-14.654zM19.895 5.618c1.353-.257 2.822.032 3.941.842a4.828 4.828 0 011.941 3.08c.277 1.427-.07 2.989-.996 4.117-.996 1.263-2.63 1.942-4.22 1.839-1.46-.084-2.874-.81-3.738-2.003-.975-1.314-1.212-3.12-.679-4.66.537-1.653 2.044-2.916 3.75-3.215m.307 1.951a2.766 2.766 0 00-1.437.913c-.997 1.192-.935 3.131.164 4.24a2.73 2.73 0 002.443.759c.81-.144 1.52-.688 1.91-1.408.677-1.221.482-2.905-.556-3.86a2.775 2.775 0 00-2.524-.644zm10.577-1.95c1.55-.3 3.246.134 4.404 1.22 1.89 1.695 2.096 4.867.483 6.818-.975 1.232-2.556 1.91-4.118 1.839-1.488-.042-2.957-.781-3.84-2.003-.997-1.344-1.213-3.194-.647-4.764.565-1.6 2.044-2.822 3.718-3.11m.309 1.95a2.81 2.81 0 00-1.437.903c-.987 1.17-.945 3.08.113 4.201.626.668 1.6.997 2.504.81.8-.154 1.52-.687 1.91-1.407.668-1.231.472-2.916-.576-3.87a2.756 2.756 0 00-2.514-.637zm8.923-1.356c1.18-.74 2.751-.945 4.024-.308.402.173.73.472 1.048.77l.01-.851 2.073.01v9.057c-.01 1.366-.36 2.813-1.344 3.81-1.077 1.098-2.732 1.436-4.22 1.21-1.591-.234-2.977-1.394-3.594-2.863.617-.299 1.264-.534 1.9-.81.36.842 1.09 1.561 2.002 1.725.914.164 1.971-.06 2.568-.822.637-.781.637-1.848.605-2.803-.472.462-1.016.874-1.674 1.026-1.428.401-3-.093-4.098-1.058-1.11-.965-1.765-2.455-1.704-3.934.032-1.672.977-3.285 2.404-4.159m2.125 1.315a2.71 2.71 0 00-1.614.935c-.964 1.15-.964 2.989.01 4.117a2.683 2.683 0 002.311.945c.81-.083 1.562-.595 1.96-1.305.679-1.202.566-2.834-.35-3.882a2.528 2.528 0 00-2.317-.81zm11.44-.791c1.23-1.15 3.13-1.54 4.711-.935 1.499.565 2.456 1.992 2.938 3.461-2.228.925-4.446 1.839-6.676 2.761.309.586.781 1.12 1.418 1.335.893.318 1.96.205 2.71-.39.298-.225.533-.523.759-.81l1.694 1.129c-.801 1.202-2.147 2.044-3.594 2.176-1.601.196-3.307-.421-4.343-1.675-1.704-1.968-1.537-5.275.382-7.052m1.1 1.9c-.35.504-.493 1.118-.483 1.725 1.488-.617 2.977-1.231 4.468-1.858-.248-.575-.843-.925-1.447-1.016-.98-.176-1.995.348-2.539 1.148z" fill="#FFF"/></svg>