<svg width="170" height="52" fill="none" xmlns="http://www.w3.org/2000/svg"><g clip-path="url(#a)"><path d="M10.913 50.477c-.434 0-.856 0-1.29-.012a20.113 20.113 0 0 1-2.62-.205 8.704 8.704 0 0 1-2.211-.677 7.064 7.064 0 0 1-1.853-1.253 6.566 6.566 0 0 1-1.342-1.7 6.807 6.807 0 0 1-.715-2.018 15.142 15.142 0 0 1-.23-2.403c-.013-.294-.026-1.214-.026-1.214V10.121s.013-.907.026-1.176c.012-.818.102-1.623.242-2.415.128-.703.37-1.393.716-2.032a6.575 6.575 0 0 1 1.329-1.7 7.506 7.506 0 0 1 1.866-1.265c.69-.319 1.431-.549 2.21-.664A19.742 19.742 0 0 1 9.623.652l1.304-.013h148.148l1.303.013c.869.012 1.738.076 2.594.204.78.128 1.534.358 2.237.677 1.38.665 2.479 1.687 3.194 2.965.345.626.575 1.304.703 2.007.141.792.23 1.61.243 2.428v1.175c.013.511.013.984.013 1.457v27.973c0 .486 0 .946-.013 1.419v1.252a14.943 14.943 0 0 1-.23 2.377 6.612 6.612 0 0 1-.716 2.045 6.727 6.727 0 0 1-1.329 1.687 7.652 7.652 0 0 1-1.853 1.265 7.94 7.94 0 0 1-2.236.677c-.856.128-1.725.205-2.607.205-.422.012-.856.012-1.291.012H10.913Z" fill="#fff"/><path d="m159.074 1.278 1.316.013c.831.012 1.674.076 2.492.204.716.115 1.419.32 2.057.626 1.266.6 2.275 1.534 2.914 2.684.307.575.524 1.188.639 1.827.141.767.217 1.547.23 2.313v1.202c.013.485.013.958.013 1.43v27.974c0 .473 0 .933-.013 1.431v1.215c-.013.753-.089 1.52-.23 2.287a6.088 6.088 0 0 1-.639 1.827 6.11 6.11 0 0 1-1.227 1.547c-.498.46-1.06.843-1.687 1.137a7.655 7.655 0 0 1-2.057.626c-.831.128-1.674.192-2.53.205-.409.012-.844.012-1.265.012H10.913c-.434 0-.856 0-1.29-.012a18.06 18.06 0 0 1-2.505-.205 7.447 7.447 0 0 1-2.045-.626 6.643 6.643 0 0 1-1.7-1.15A5.847 5.847 0 0 1 2.16 46.31a5.903 5.903 0 0 1-.652-1.827 13.93 13.93 0 0 1-.217-2.326c0-.268-.013-1.175-.013-1.175v-30.85s.013-.907.025-1.2c.013-.767.09-1.534.218-2.3.115-.627.332-1.24.651-1.828a5.85 5.85 0 0 1 1.214-1.546 7.105 7.105 0 0 1 1.7-1.15 7.497 7.497 0 0 1 2.032-.627c.83-.127 1.687-.191 2.53-.204h149.426Zm0-1.278H10.914L9.61.013c-.895.013-1.802.09-2.697.217-.83.128-1.635.37-2.39.728a8.389 8.389 0 0 0-2.018 1.368 7.295 7.295 0 0 0-1.457 1.866 7.471 7.471 0 0 0-.792 2.223c-.154.83-.23 1.661-.243 2.505C.013 9.188 0 10.12 0 10.12v30.874s.013.933.026 1.214c.012.844.089 1.674.242 2.505.14.767.397 1.52.78 2.21s.869 1.317 1.47 1.867a7.562 7.562 0 0 0 2.019 1.354 8.63 8.63 0 0 0 2.39.728c.894.141 1.788.205 2.696.218.421.012.856.025 1.29.025h148.161c.434 0 .869 0 1.291-.013a19.038 19.038 0 0 0 2.696-.217 9.166 9.166 0 0 0 2.402-.728 8.141 8.141 0 0 0 2.02-1.367 7.353 7.353 0 0 0 1.469-1.853 7.416 7.416 0 0 0 .78-2.237c.153-.818.23-1.648.242-2.479v-1.24c.013-.472.013-.945.013-1.43V11.577c0-.486 0-.959-.013-1.457V8.933a15.102 15.102 0 0 0-.255-2.518 7.497 7.497 0 0 0-.767-2.198c-.767-1.393-1.981-2.517-3.476-3.233a8.67 8.67 0 0 0-2.415-.728 18.692 18.692 0 0 0-2.684-.218L159.074 0Z" fill="#000"/><path d="M40.842 25.238a6.598 6.598 0 0 1 3.131-5.52 6.715 6.715 0 0 0-5.303-2.863c-2.237-.23-4.396 1.33-5.534 1.33-1.163 0-2.913-1.317-4.792-1.278a7.044 7.044 0 0 0-5.942 3.629c-2.569 4.447-.652 10.99 1.814 14.58 1.227 1.764 2.671 3.732 4.55 3.656 1.84-.077 2.53-1.176 4.754-1.176 2.198 0 2.85 1.176 4.766 1.137 1.981-.038 3.22-1.763 4.41-3.552a14.509 14.509 0 0 0 2.018-4.115 6.332 6.332 0 0 1-3.872-5.828ZM37.213 14.479a6.506 6.506 0 0 0 1.483-4.64 6.613 6.613 0 0 0-4.269 2.212 6.21 6.21 0 0 0-1.52 4.472 5.47 5.47 0 0 0 4.306-2.044ZM62.962 34.504h-6.044l-1.457 4.293h-2.556l5.725-15.871h2.658l5.725 15.871h-2.607l-1.444-4.293Zm-5.43-1.981h4.791l-2.35-6.965h-.065l-2.377 6.965ZM79.384 33.008c0 3.591-1.93 5.904-4.83 5.904a3.934 3.934 0 0 1-3.643-2.019h-.05v5.725h-2.378V27.22h2.3v1.93h.039a4.102 4.102 0 0 1 3.68-2.045c2.952-.012 4.882 2.313 4.882 5.904Zm-2.44 0c0-2.338-1.215-3.885-3.055-3.885-1.815 0-3.041 1.572-3.041 3.885 0 2.326 1.226 3.898 3.04 3.898 1.854-.013 3.055-1.534 3.055-3.898ZM92.124 33.008c0 3.591-1.93 5.904-4.83 5.904a3.933 3.933 0 0 1-3.642-2.019H83.6v5.725h-2.376V27.22h2.3v1.93h.038a4.102 4.102 0 0 1 3.68-2.045c2.94-.012 4.882 2.313 4.882 5.904Zm-2.44 0c0-2.338-1.215-3.885-3.055-3.885-1.814 0-3.041 1.572-3.041 3.885 0 2.326 1.227 3.898 3.041 3.898 1.84-.013 3.054-1.534 3.054-3.898ZM100.533 34.363c.178 1.572 1.699 2.607 3.795 2.607 2.006 0 3.437-1.035 3.437-2.454 0-1.227-.869-1.968-2.926-2.479l-2.057-.498c-2.914-.703-4.269-2.07-4.269-4.281 0-2.735 2.39-4.613 5.777-4.613 3.348 0 5.648 1.878 5.725 4.613h-2.403c-.14-1.585-1.457-2.543-3.361-2.543-1.904 0-3.22.971-3.22 2.377 0 1.124.831 1.776 2.875 2.287l1.751.435c3.259.766 4.613 2.083 4.613 4.396 0 2.964-2.364 4.83-6.121 4.83-3.514 0-5.891-1.815-6.044-4.69l2.428.013ZM115.408 24.485v2.734h2.198v1.879h-2.198v6.377c0 .996.434 1.456 1.405 1.456.256 0 .524-.025.78-.05v1.865a7.646 7.646 0 0 1-1.316.115c-2.339 0-3.259-.882-3.259-3.118v-6.632h-1.687v-1.892h1.687v-2.734h2.39ZM118.884 33.008c0-3.642 2.147-5.93 5.482-5.93 3.348 0 5.482 2.288 5.482 5.93 0 3.655-2.121 5.93-5.482 5.93-3.361-.013-5.482-2.288-5.482-5.93Zm8.549 0c0-2.492-1.15-3.974-3.067-3.974-1.917 0-3.067 1.482-3.067 3.974 0 2.505 1.15 3.975 3.067 3.975 1.917 0 3.067-1.47 3.067-3.975ZM131.816 27.22h2.262v1.967h.051a2.788 2.788 0 0 1 2.786-2.095c.269 0 .55.025.818.089v2.224a3.319 3.319 0 0 0-1.061-.141 2.398 2.398 0 0 0-2.479 2.67v6.863h-2.377V27.22ZM148.685 35.385c-.32 2.096-2.364 3.54-4.984 3.54-3.361 0-5.457-2.249-5.457-5.878 0-3.63 2.096-5.98 5.355-5.98 3.194 0 5.213 2.197 5.213 5.711v.818h-8.165v.14a3.02 3.02 0 0 0 2.734 3.272c.128.013.256.013.371.013a2.624 2.624 0 0 0 2.671-1.623l2.262-.013Zm-8.026-3.45h5.789a2.766 2.766 0 0 0-2.619-2.926h-.218a2.932 2.932 0 0 0-2.952 2.926c0-.013 0-.013 0 0ZM57.238 10.977c1.853-.128 3.476 1.265 3.604 3.118.012.217.012.447-.013.665 0 2.44-1.316 3.833-3.591 3.833h-2.76v-7.616h2.76Zm-1.572 6.543h1.431a2.398 2.398 0 0 0 2.53-2.25c.013-.165 0-.331-.025-.497a2.406 2.406 0 0 0-2.057-2.71 1.85 1.85 0 0 0-.46-.012h-1.432l.013 5.469c-.013 0 0 0 0 0ZM62.158 15.718a2.742 2.742 0 0 1 2.453-2.977 2.742 2.742 0 0 1 2.978 2.453 3.58 3.58 0 0 1 0 .524 2.726 2.726 0 0 1-2.454 2.978 2.726 2.726 0 0 1-2.977-2.454 3.577 3.577 0 0 1 0-.524Zm4.268 0c0-1.252-.562-1.98-1.546-1.98s-1.547.728-1.547 1.98c0 1.253.55 1.98 1.547 1.98.984 0 1.546-.727 1.546-1.98ZM74.81 18.593h-1.176l-1.189-4.242h-.09l-1.188 4.242h-1.163l-1.584-5.75h1.15l1.035 4.396h.09l1.188-4.396h1.086l1.189 4.396h.09l1.021-4.396h1.138l-1.597 5.75ZM77.723 12.843h1.099v.92h.09a1.704 1.704 0 0 1 1.712-1.022 1.865 1.865 0 0 1 2.006 1.725c.013.14 0 .281-.013.409v3.718h-1.15v-3.437c0-.92-.396-1.38-1.24-1.38a1.316 1.316 0 0 0-1.38 1.252v3.565H77.71l.013-5.75ZM84.419 10.594h1.137v8H84.42v-8ZM87.128 15.718a2.742 2.742 0 0 1 2.454-2.977 2.742 2.742 0 0 1 2.977 2.453 3.58 3.58 0 0 1 0 .524 2.726 2.726 0 0 1-2.453 2.978 2.718 2.718 0 0 1-2.978-2.978Zm4.256 0c0-1.252-.563-1.98-1.546-1.98-.984 0-1.547.728-1.547 1.98 0 1.253.55 1.98 1.547 1.98.996 0 1.546-.727 1.546-1.98ZM93.76 16.97c0-1.034.767-1.635 2.135-1.712l1.559-.09v-.498c0-.613-.396-.945-1.176-.945-.639 0-1.073.23-1.201.639h-1.099c.115-.984 1.048-1.623 2.351-1.623 1.444 0 2.262.715 2.262 1.93v3.935h-1.099v-.805h-.09a1.96 1.96 0 0 1-1.724.908 1.728 1.728 0 0 1-1.904-1.547c-.013-.076-.013-.127-.013-.191Zm3.694-.485v-.486l-1.406.09c-.792.051-1.15.32-1.15.83 0 .524.447.818 1.06.818a1.359 1.359 0 0 0 1.483-1.214c.013-.012.013-.025.013-.038ZM100.073 15.718c0-1.815.933-2.965 2.39-2.965a1.891 1.891 0 0 1 1.763 1.01h.09v-3.17h1.137v8h-1.086v-.907h-.089a2.012 2.012 0 0 1-1.802 1.01c-1.47 0-2.403-1.15-2.403-2.978Zm1.176 0c0 1.227.575 1.955 1.533 1.955.959 0 1.547-.74 1.547-1.955 0-1.201-.601-1.955-1.547-1.955-.945 0-1.533.741-1.533 1.955ZM110.143 15.718a2.741 2.741 0 0 1 2.454-2.977c1.495-.154 2.824.958 2.977 2.453.013.18.013.345 0 .524a2.726 2.726 0 0 1-2.454 2.978 2.726 2.726 0 0 1-2.977-2.454 3.524 3.524 0 0 1 0-.524Zm4.268 0c0-1.252-.562-1.98-1.546-1.98s-1.546.728-1.546 1.98c0 1.253.549 1.981 1.546 1.981.984 0 1.546-.728 1.546-1.98ZM117.095 12.843h1.099v.92h.089a1.705 1.705 0 0 1 1.713-1.022 1.865 1.865 0 0 1 1.993 2.134v3.718h-1.137v-3.437c0-.92-.396-1.38-1.24-1.38a1.316 1.316 0 0 0-1.38 1.252v3.565h-1.137v-5.75ZM128.405 11.412v1.456h1.252v.959h-1.252v2.965c0 .6.243.869.818.869.14 0 .294-.013.434-.026v.946c-.204.038-.409.05-.613.064-1.265 0-1.764-.448-1.764-1.56V13.84h-.907v-.959h.907v-1.47h1.125ZM131.203 10.594h1.125v3.169h.089a1.785 1.785 0 0 1 1.751-1.035 1.89 1.89 0 0 1 1.993 1.789c.013.115 0 .243-.012.358v3.718h-1.138v-3.437c0-.92-.421-1.38-1.226-1.38a1.328 1.328 0 0 0-1.445 1.226v3.591h-1.137v-8ZM142.781 17.047a2.325 2.325 0 0 1-2.492 1.662 2.614 2.614 0 0 1-2.684-2.543c0-.141 0-.282.026-.422a2.65 2.65 0 0 1 2.645-3.003c1.598 0 2.569 1.099 2.569 2.9v.397h-4.064v.064a1.521 1.521 0 0 0 1.393 1.648h.141a1.37 1.37 0 0 0 1.367-.703h1.099Zm-4-1.853h2.901a1.379 1.379 0 0 0-1.278-1.482h-.14a1.473 1.473 0 0 0-1.496 1.457c.013 0 .013.012.013.025Z" fill="#000"/></g><defs><clipPath id="a"><path fill="#fff" d="M0 0h170v51.116H0z"/></clipPath></defs></svg>