<svg xmlns="http://www.w3.org/2000/svg" viewBox="0 0 64 64"><defs><style>.cls-1{fill:#fce1dc;}.cls-2{fill:#ff5e59;}.cls-3{fill:none;stroke:#3b5473;stroke-miterlimit:10;}</style></defs><g id="Fill"><path class="cls-1" d="M45.27,18.43a22.91,22.91,0,0,0-3.72-2.55,7.89,7.89,0,0,0-4.35-1,10.05,10.05,0,0,0-4.71,2.19,33.64,33.64,0,0,0-8.24,8.75c-.26.4-.46,1-.05,1.26s.83-.22,1.08-.61a27.07,27.07,0,0,1,8.84-8.62,3.77,3.77,0,0,1,1.74-.67,1.43,1.43,0,0,1,1.47.94c-2.61,1.64-6.14,4.56-7.1,7.63a103.35,103.35,0,0,0-2.75,10.86l-1.06,5.55a3.75,3.75,0,0,1-.61,1.66c-.71.89-2,.93-3.18.72A11.37,11.37,0,0,1,17.31,42a10.3,10.3,0,0,0-1.92-1.51c-1.68-.85-3,.63-4.25,1.64S9.06,44.29,9.6,45.84a4.25,4.25,0,0,0,1.53,1.76,31,31,0,0,0,12.6,5.67,8.91,8.91,0,0,0,5.6-.27c2.12-1,3.45-3.17,5.08-4.75a20.62,20.62,0,0,1,6.64-4.06c3.27-1.34,6.72-2.27,9.85-3.91A6.29,6.29,0,0,0,54,37.5c1-2.38-.51-4.59-1.78-6.44-1.42-2.08-1.73-5-2.59-7.36-.94-2.57-2.25-5.48-5.07-6.23a10.48,10.48,0,0,0-7.85,1.19,16.24,16.24,0,0,0-6.34,7.55"/><path class="cls-2" d="M20.78,30.31c1.58,0,3.8,1.23,4.15,4.43.39,3.49-1.11,6-2.78,6.33-2.37.47-5.73-1.53-5.73-5.57S19.37,30.36,20.78,30.31Z"/></g><g id="Stroke"><path class="cls-3" d="M24.05,17.42C17.28,21.16,15.31,26.66,15,37.5a12.08,12.08,0,0,0-.07,2.94c.41,2,2.35,2.67,4.06,3.23,1.4.46,2.82.88,4.24,1.27a2.84,2.84,0,0,0,2.34-.07c.75-.54.78-1.61.77-2.53a36,36,0,0,1,2-13.84,18.5,18.5,0,0,1,9.11-10.29,9.37,9.37,0,0,1,7.16-.59c1.79.69,4.94,3.72,6.72,8.93a46,46,0,0,1,2.1,10.53c.09.93-.36,2.9-3.43,4.33-8.09,3.77-18.4,4.1-23.95,2.32"/><path class="cls-3" d="M19.41,26.11c3.22-6.87,10.89-13.59,17.19-11.2"/><path class="cls-3" d="M23.74,27C29.28,16.24,38.26,11,46,18.35"/><path class="cls-3" d="M13.32,40.05A23,23,0,0,0,9.83,42.6a2.49,2.49,0,0,0-.5,2.63c.79,1.71,3.71,2.37,5.28,2.93l7.48,2.7c2,.73,4.37,1.49,6.52.73S36,45.88,38.09,44.7"/><path class="cls-3" d="M8.07,20a2.86,2.86,0,0,1,.22,3.33c-.12.19-.32.39-.55.34a.41.41,0,0,1-.16-.66A.66.66,0,0,1,8.35,23a1.67,1.67,0,0,1,.55.6,8.57,8.57,0,0,1,1.3,4.49"/><path class="cls-3" d="M53.73,16.36a5.74,5.74,0,0,1-1.52-5.55c.11-.41.39-.89.81-.85s.63.64.41,1a1.7,1.7,0,0,1-1.08.68c-2.62.69-5.37-.31-7.9-1.29"/><path class="cls-3" d="M45.63,50.4a9.68,9.68,0,0,0,9.09-2.7"/></g></svg>