<svg width="170" height="52" fill="none" xmlns="http://www.w3.org/2000/svg"><g clip-path="url(#a)"><path d="M6.364 50.477c-3.118 0-5.648-2.581-5.648-5.75V6.39c0-3.17 2.53-5.751 5.648-5.751h157.272c3.118 0 5.649 2.581 5.649 5.75v38.338c0 3.169-2.531 5.75-5.649 5.75H6.364Z" fill="#fff"/><path d="M163.637 1.278c2.76 0 5.009 2.287 5.009 5.112v38.337c0 2.824-2.249 5.111-5.009 5.111H6.364c-2.76 0-5.009-2.287-5.009-5.111V6.39c0-2.825 2.25-5.112 5.01-5.112h157.272Zm0-1.278H6.364C2.901 0 .077 2.875.077 6.39v38.337c0 3.514 2.837 6.39 6.287 6.39h157.273c3.463 0 6.287-2.876 6.287-6.39V6.39c0-3.515-2.824-6.39-6.287-6.39Z" fill="#000"/><path d="M57.596 13.086c.191 3.476-4.384 4.868-6.594 2.543-3.745-3.566 2.031-9.457 5.597-5.674l-.677.677c-2.697-2.965-7.029 1.7-4.192 4.37 1.533 1.598 4.792.882 4.882-1.559h-2.786v-.932h3.718c.026.204.052.396.052.575ZM63.486 9.891h-3.488v2.428h3.143v.92h-3.143v2.428h3.488v.946h-4.472V8.945h4.472v.946ZM67.64 16.613h-.984V9.89h-2.147v-.946h5.265v.946h-2.147v6.722h.013ZM73.595 16.613V8.945h.984v7.668h-.984ZM78.95 16.613h-.985V9.89h-2.147v-.946h5.265v.946h-2.147v6.722h.013ZM91.064 15.616c-3.616 3.757-9.265-2.07-5.623-5.674 3.604-3.757 9.278 2.083 5.623 5.674Zm-4.894-.639c2.81 2.837 6.888-1.725 4.165-4.396-2.81-2.862-6.887 1.712-4.165 4.396ZM93.581 16.613V8.945h1.201l3.732 5.968h.038c-.051-.984-.038-4.907-.038-5.968h.984v7.668h-1.023l-3.897-6.25h-.038c.05.985.038 5.19.038 6.25h-.997ZM84.073 27.794c-7.08-.23-7.08 11.08 0 10.863 7.08.217 7.08-11.093 0-10.863Zm0 8.729c-3.974.166-3.974-6.76 0-6.595 3.975-.166 3.962 6.748 0 6.595Zm-11.91-8.729c-7.08-.23-7.08 11.08 0 10.863 7.08.217 7.08-11.093 0-10.863Zm0 8.729c-3.974.166-3.974-6.76 0-6.595 3.962-.166 3.962 6.76 0 6.595Zm-14.159-7.055v2.3h5.52c-.626 7.004-12.012 5.317-11.565-1.546-.28-5.265 6.76-8.114 10.211-4.485l1.623-1.623c-4.703-5.086-14.67-1.125-14.35 6.121-.205 11.36 18.618 10.773 16.318-.754l-7.757-.013Zm57.902 1.79c-1.15-4.908-10.134-4.396-9.776 1.967-.473 5.534 7.846 7.08 9.917 3.03l-1.853-1.24c-1.099 1.955-4.358 2.082-5.304-.141l7.272-3.003-.256-.613Zm-7.412 1.814c-.115-3.092 3.668-4.23 4.856-2.019l-4.856 2.02Zm-5.904 5.265h2.39V22.363h-2.39v15.974Zm-3.91-9.329h-.09c-2.785-3.003-8.268 0-8.076 4.243-.204 4.204 5.316 7.233 8.076 4.179h.077c.856 4.012-4.332 5.392-5.636 2.044l-2.083.87c1.675 4.651 10.39 4.421 9.981-2.454v-9.763h-2.262l.013.881Zm-2.748 7.515c-3.948.127-3.91-6.722 0-6.582 3.745-.14 3.808 6.735 0 6.582Zm31.168-14.16h-5.712v15.974h2.39V32.28c9.009 1.802 12.383-8.511 3.322-9.917Zm.052 7.693h-3.387v-5.482h3.387c3.706.115 3.693 5.367 0 5.482Zm14.747-2.287c-1.726 0-3.515.767-4.256 2.44l2.122.882c1.022-2.032 4.83-1.303 4.677 1.048-10.735-3.706-7.655 11.386-.09 4.933h.077v1.24h2.3c-.025-3.821 1.086-10.952-4.83-10.543Zm-.294 8.754c-4.754-1.023.46-4.46 2.837-2.518-.179 1.47-1.457 2.517-2.837 2.517Zm13.52-8.41-2.735 6.927h-.076l-2.837-6.926h-2.569l4.255 9.686-2.428 5.38h2.492l6.556-15.066h-2.658Zm-21.469 10.224h2.39V22.363h-2.39v15.974Z" fill="#000"/><path d="M13.01 9.635c-.985 1.483-1.138 30.53.089 31.935l15.833-15.82v-.384L13.099 9.546l-.09.09Z" fill="url(#b)"/><path d="m34.21 31.027-5.278-5.277v-.384l5.277-5.277c10.198 5.43 10.096 5.507 0 10.939Z" fill="url(#c)"/><path d="m34.324 30.963-5.392-5.405L13.008 41.48c1.227 2.581 19.756-10.313 21.315-10.518Z" fill="url(#d)"/><path d="M34.324 20.165c-1.648-.242-20.012-13.085-21.328-10.53l15.936 15.923 5.392-5.393Z" fill="url(#e)"/><path opacity=".2" d="M34.21 30.836c-1.573.255-19.847 12.83-21.112 10.555l-.09.09.09.09c1.189 2.312 19.757-10.403 21.226-10.62l-.115-.115Z" fill="#000"/><path opacity=".12" d="M13.01 41.302c-.371-.396-.589-1.01-.589-1.79-.038.793.18 1.585.588 1.981l.09-.089-.09-.102ZM40.574 27.22l-6.377 3.616.115.115c1.176-1.01 7.77-3.476 7.591-5.393-.064.6-.511 1.201-1.329 1.661Z" fill="#000"/><path opacity=".25" d="M15.655 9.737c.357.524 27.82 14.94 26.26 15.821 1.419-1.457-25.711-15.207-26.26-16-1.879-1.086-3.361-.012-3.246 2.07 0-2.057 1.47-2.9 3.245-1.89Z" fill="#fff"/></g><defs><linearGradient id="b" x1="27.521" y1="11.136" x2="6.075" y2="32.582" gradientUnits="userSpaceOnUse"><stop stop-color="#00A0FF"/><stop offset=".007" stop-color="#00A1FF"/><stop offset=".26" stop-color="#00BEFF"/><stop offset=".512" stop-color="#00D2FF"/><stop offset=".76" stop-color="#00DFFF"/><stop offset="1" stop-color="#00E3FF"/></linearGradient><linearGradient id="c" x1="42.794" y1="25.558" x2="12.095" y2="25.558" gradientUnits="userSpaceOnUse"><stop stop-color="#FFE000"/><stop offset=".409" stop-color="#FFBD00"/><stop offset=".775" stop-color="orange"/><stop offset="1" stop-color="#FF9C00"/></linearGradient><linearGradient id="d" x1="31.387" y1="28.496" x2="2.266" y2="57.616" gradientUnits="userSpaceOnUse"><stop stop-color="#FF3A44"/><stop offset="1" stop-color="#C31162"/></linearGradient><linearGradient id="e" x1="8.956" y1=".202" x2="21.957" y2="13.203" gradientUnits="userSpaceOnUse"><stop stop-color="#32A071"/><stop offset=".069" stop-color="#2DA771"/><stop offset=".476" stop-color="#15CF74"/><stop offset=".801" stop-color="#06E775"/><stop offset="1" stop-color="#00F076"/></linearGradient><clipPath id="a"><path fill="#fff" d="M0 0h170v51.116H0z"/></clipPath></defs></svg>