<svg width="127" height="20" xmlns="http://www.w3.org/2000/svg"><g fill="#FFF"><path d="M13.025 3.418a1.866 1.866 0 00-1.898 1.898 1.91 1.91 0 103.819 0 1.87 1.87 0 00-1.92-1.898zm0 2.612a.686.686 0 01-.693-.714.672.672 0 01.693-.693.686.686 0 01.713.693.701.701 0 01-.713.71v.004z"/><path d="M11.985.089c-2.284 0-4.77 1.024-6.14 2.74l.951 1.298c.288.387.609.75.958 1.083a3.199 3.199 0 00-1.25-.243C2.777 4.967 0 8 0 12.152c0 4.38 3.47 7.76 7.966 7.76 3.707 0 6.582-2.669 6.582-6.12 0-1.549-.585-2.944-1.645-3.746h3.967c.786-1.52 1.15-2.978 1.15-4.294-.007-3.287-2.272-5.663-6.035-5.663zm-4.02 18.47c-2.212 0-4.124-.996-5.31-2.565l3.08-3.094a2.803 2.803 0 002.833 2.846c1.407 0 2.43-.987 2.43-2.32 0-.768-.475-1.59-1.169-1.864l-.877.877c.39.175.646.559.657.986 0 .566-.438.969-1.06.969-.968 0-1.57-.75-1.57-1.79 0-1.462 1.17-2.632 2.813-2.632 1.918 0 3.361 1.627 3.361 3.82 0 2.684-2.267 4.767-5.187 4.767zm8.002-9.865h-5.535c-2.12 0-3.051.621-4.093 1.662l-4.393 4.43a6.434 6.434 0 01-.554-2.634c0-3.418 2.298-5.906 5.367-5.906 1.14 0 1.955.457 2.65 1.06l.748-.75L7.691 3.03a6.456 6.456 0 014.294-1.59c2.923 0 4.64 1.755 4.64 4.294a7.51 7.51 0 01-.658 2.96zM33.048 5.24h-3.672l-2.813 4.48V1.587h-3.252v13.52h3.252v-4.278l2.96 4.277h3.8l-3.527-4.97zM35.77.76c-1.132 0-1.936.768-1.936 1.808 0 1.079.804 1.846 1.937 1.846 1.096 0 1.899-.767 1.899-1.846 0-1.035-.803-1.809-1.9-1.809zm-1.699 4.481h3.252v9.865h-3.252zm9.994 2.558c1.005 0 1.753.73 1.917 1.79l3.038-.822c-.73-3.05-2.996-3.891-4.97-3.891-2.885 0-5.242 1.972-5.242 5.297 0 3.326 2.357 5.3 5.243 5.3 1.973 0 4.239-.841 4.97-3.893l-3.039-.822c-.164 1.06-.912 1.79-1.917 1.79-1.06 0-2.01-.748-2.01-2.375 0-1.626.95-2.374 2.01-2.374zM60.14 5.24h-3.67l-2.814 4.48V1.587h-3.252v13.52h3.252v-4.278l2.96 4.277h3.8l-3.526-4.97zm6.907-.236c-1.909 0-2.405 1.733-2.686 3.78l-.253-3.545h-2.962v9.866h3.251V9.863c.312-.767.914-1.37 1.773-1.37h1.93l-.543-3.43a2.384 2.384 0 00-.511-.06zM78.081 9.46c0-2.775-2.065-4.584-4.714-4.584-3.36 0-5.005 2.594-5.005 5.224 0 3.325 2.23 5.372 5.57 5.372 1.645 0 3.124-.548 4.019-1.334L76.81 12c-.895.476-1.844.786-2.831.786-1.362 0-2.198-.578-2.543-1.443l6.47.018a8.9 8.9 0 00.174-1.9zm-6.756-.328c.127-1.132.864-1.808 2.007-1.808 1.06 0 1.826.62 1.88 1.808h-3.887zm11.89-1.754c.932 0 1.808.347 2.228 1.48l2.357-1.01c-.566-2.06-2.357-2.972-4.53-2.972-2.559 0-4.11 1.552-4.11 3.306 0 1.393.803 2.503 2.556 2.85l1.59.311 1.04.201c.477.091.66.31.66.633 0 .42-.403.785-1.316.785s-1.809-.347-2.23-1.48l-2.356 1.012c.567 2.064 2.357 2.978 4.531 2.978 2.557 0 4.11-1.553 4.11-3.307 0-1.393-.803-2.503-2.558-2.85L83.6 9.004l-1.042-.2c-.475-.091-.658-.312-.658-.633 0-.427.402-.793 1.316-.793zm11.838 4.86c-.311.457-.633.73-1.315.73-.64 0-1.334-.346-1.334-1.497V5.24h-3.252v6.668c0 1.937.858 3.563 3.142 3.563 1.573 0 2.524-.787 2.807-2.575l.245 2.21h2.96V5.24h-3.253v6.997zm17.209-7.362c-1.32 0-2.59.515-2.994 2.548-.233-1.266-1.07-2.548-2.962-2.548-1.309 0-2.568.506-2.983 2.491l-.232-2.126h-2.964v9.865h3.251V8.018c.299-.421.79-.662 1.306-.64.821 0 1.424.53 1.424 1.681v6.047h3.234V8.008v.01c.295-.417.78-.657 1.29-.64.822 0 1.425.53 1.425 1.681v6.047h3.234V8.2c.004-1.46-.745-3.324-3.029-3.324zm9.975 7.909c-1.362 0-2.198-.579-2.543-1.443l6.47.017a8.9 8.9 0 00.165-1.898c0-2.776-2.064-4.585-4.714-4.585-3.36 0-5.005 2.594-5.005 5.224 0 3.325 2.23 5.372 5.57 5.372 1.645 0 3.124-.548 4.019-1.334L125.063 12c-.886.476-1.84.785-2.826.785zm-.657-5.462c1.06 0 1.826.62 1.88 1.807h-3.887c.13-1.13.864-1.806 2.007-1.806v-.001z"/></g></svg>