<svg xmlns="http://www.w3.org/2000/svg" viewBox="0 0 40 40"><rect width="40" height="40" fill="#FF5E59" rx="6.957"/><path fill="#fff" fill-rule="evenodd" d="M16.724 12.425c1.43-1.791 4.026-2.86 6.41-2.86 3.93 0 6.294 2.48 6.302 5.91 0 1.374-.38 2.895-1.201 4.48h-4.142c1.107.838 1.718 2.293 1.718 3.909 0 3.602-3.002 6.386-6.873 6.386-4.694 0-8.318-3.527-8.318-8.097 0-4.332 2.9-7.497 6.791-7.497.448-.004.892.082 1.306.253a8.896 8.896 0 0 1-1-1.13l-.993-1.354Zm-3.33 13.737c1.236 1.638 3.233 2.677 5.544 2.677 3.05 0 5.416-2.174 5.416-4.975 0-2.288-1.506-3.985-3.509-3.985-1.717 0-2.938 1.22-2.938 2.746 0 1.085.629 1.867 1.64 1.867.65 0 1.106-.42 1.106-1.01a1.16 1.16 0 0 0-.685-1.03l.915-.914c.725.285 1.22 1.143 1.22 1.944 0 1.392-1.068 2.421-2.536 2.421a2.927 2.927 0 0 1-2.958-2.97l-3.216 3.229Zm8.119-7.617h5.78a7.84 7.84 0 0 0 .686-3.089c0-2.65-1.793-4.48-4.845-4.48a6.743 6.743 0 0 0-4.483 1.659l2.575 3.679-.781.782c-.726-.63-1.577-1.106-2.767-1.106-3.205 0-5.604 2.597-5.604 6.163a6.71 6.71 0 0 0 .578 2.749l4.587-4.623c1.088-1.086 2.061-1.735 4.274-1.735Zm1.943-5.363a1.95 1.95 0 0 1 .764-.141 1.952 1.952 0 0 1 2.005 1.981 1.99 1.99 0 0 1-1.218 1.888 1.996 1.996 0 0 1-2.77-1.888 1.947 1.947 0 0 1 1.219-1.84Zm.48 2.53c.09.038.187.056.284.055v-.004a.734.734 0 0 0 .744-.74.717.717 0 0 0-.744-.725.7.7 0 0 0-.724.724.715.715 0 0 0 .44.69Z" clip-rule="evenodd"/></svg>