<svg width="65" height="18" xmlns="http://www.w3.org/2000/svg"><path d="M34.328 17.537h8.853c1.324 0 2.41-.542 3.29-1.63.847-1.05 1.289-2.305 1.289-3.73 0-2.882-3.696-4.919-5.124-4.919h-4.85c-.372 0-.677-.17-.914-.44a1.661 1.661 0 01-.372-1.054c0-.476.135-.882.372-1.22.271-.338.612-.543 1.018-.543h9.09V.372h-9.26c-1.662 0-2.951.508-3.868 1.492-.814.914-1.22 2.137-1.22 3.594 0 1.426.406 2.68 1.22 3.696.914 1.12 2.002 1.697 3.323 1.697h5.597c.338 0 .611.1.814.372.236.27.34.611.34.983 0 .442-.17.849-.442 1.189-.305.306-.643.476-1.084.476h-8.955l-.136-.237-3.358-10.786-.17-.34C28.968.844 27.611.031 25.745.031c-1.018 0-1.933.237-2.746.747-.849.508-1.391 1.255-1.697 2.204L16.79 17.5l4.105.035L25.032 4.61c.102-.406.34-.611.644-.611.17 0 .306.066.407.17.1.136.17.271.204.441l4.172 12.925 3.869.002zM3.799 5.666v11.837H0V4.376C0 2.68.407 1.492 1.29.782 1.968.272 2.986 0 4.408 0a4.95 4.95 0 013.018.984c.883.643 1.457 1.526 1.763 2.61l2.475 8.719.407 1.188c.034.237.17.407.306.543.17.135.337.204.542.135.34-.034.508-.236.508-.542V.407h3.9v13.06c0 1.46-.337 2.544-1.05 3.323-.678.78-1.696 1.189-3.052 1.189-1.189 0-2.172-.237-2.951-.644-.95-.476-1.561-1.22-1.832-2.204L5.597 5.19l-.205-.643c-.07-.237-.205-.407-.372-.577-.17-.136-.372-.17-.577-.136-.205.035-.338.136-.476.34-.112.184-.17.396-.17.612l.002.88zm60.717 11.871L60.107 2.85l-.17-.34C59.123.848 57.767.035 55.901.035c-1.018 0-1.933.236-2.746.747-.849.508-1.391 1.255-1.697 2.204l-4.512 14.517 4.105.034 4.137-12.924c.102-.407.34-.612.644-.612.17 0 .306.067.407.17.103.136.17.272.204.442l4.172 12.924h3.9z" fill="#FFF"/></svg>