<svg viewBox="0 0 161 62" xmlns="http://www.w3.org/2000/svg"><path fill="#fff" d="M6.079 42.708h26.365v10.289H6.079zM6.079 9.269h26.365v10.289H6.079zM6.079 25.346h26.365v10.289H6.079z"/><path d="m2.788 6.108 31.738-.054c1.051.022 1.983.427 2.374 1.379.08.193.11.403.108.613l-.024 11.231c0 .688-.31 1.353-.87 1.755a2.162 2.162 0 0 1-1.194.423L3.33 21.46a2.342 2.342 0 0 1-1.403-.43c-.567-.395-.887-1.062-.881-1.756l.088-11.199c.004-.571.25-1.119.681-1.493.27-.232.57-.411.97-.473h.002Zm10.146 4.552c-1.237-.214-2.996.156-4.297 0v6.994h2.398v-1.798c1.383.086 3.207.064 3.97-1.325.542-.983.245-2.588-.7-3.242-.2-.137-1.18-.595-1.37-.629h-.002Zm14.068.022h-2.354c-.202.915-3.12 6.679-2.82 6.972l2.177-.021.543-1.188h2.556l.544 1.188 2.376.021-3.02-6.972h-.002Z" fill="#0C3F61"/><path d="M11.036 14.257v-1.8l1.61.09c.732 1.396-.363 1.778-1.61 1.71ZM26.023 13.058l.602 1.799h-1.399c-.062-.548.17-1.047.36-1.543.088-.232.212-.534.44-.254l-.003-.002Z" fill="#0C3F61"/><path d="m3.191 23.098 31.136-.058c1.239.096 2.547.478 2.695 1.9l-.091 12.173a1.732 1.732 0 0 1-.526 1.255c-.292.274-.658.46-1.081.473l-33.092-.096c-.553-.265-1.089-.785-1.18-1.416l-.015-12.39c.126-1.204 1.065-1.66 2.154-1.843v.002Zm9.743 4.548c-1.181-.204-2.854.15-4.097 0v6.795h2.398c.004-.364-.008-.733 0-1.101.006-.31-.144-.572.302-.5.755.124.977 1.437 1.423 1.575l2.272.024-1.201-2.096c1.548-.62 1.682-3.05.391-3.99-.235-.171-1.25-.667-1.488-.709v.002Zm9.274.018-2.18-.018c-.286.27 1.799 5.906 2.018 6.777l2.568.008 1.11-3.387 1.087 3.311 2.6.078 2.008-6.785-2.18.016-1.018 3.581c-.477.044-.327.032-.411-.283-.116-.438-.933-3.3-1.107-3.326l-2.067.02c-.19 1.141-.701 2.19-.997 3.304-.084.316.066.325-.412.284l-1.019-3.58Z" fill="#166193"/><path d="M11.235 31.044v-1.601c2.44-.384 2.448 1.98 0 1.6Z" fill="#166193"/><path d="M1.503 41.294c.384-.378 1.281-.668 1.833-.666h31.393c.172-.004.337.01.501.042 1.058.21 1.793 1.183 1.785 2.262l-.08 11.1a1.836 1.836 0 0 1-.891 1.578c-.392.23-.852.358-1.32.42l-31.188.004c-1.171-.064-2.362-.616-2.496-1.9-.374-3.588.27-7.773.022-11.462a1.93 1.93 0 0 1 .281-1.173c.054-.082.108-.154.16-.205Zm13.93 8.936c-.566.042-.826-.807-1.296-.805-.408 0-.927.556-1.415.608-2.54.265-2.576-3.943.004-3.598.53.072 1.123.706 1.573.578.388-.41 1.449-.977.925-1.473-1.874-1.778-5.683-1.139-6.536 1.443-1.046 3.168 1.58 5.236 4.634 4.834.815-.108 1.954-.72 2.108-1.587h.002Zm10.729-5.739c-5.264.126-5.078 8.123.95 7.324.822-.11 1.781-.653 2.307-1.289-.362-.33-.845-.989-1.337-1.077-.492-.088-1.13.758-2.118.544-1.69-.364-1.487-3.312-.04-3.566 1.099-.191 1.762.706 2.168.586l1.327-1.083c-.76-.925-2.074-1.469-3.26-1.441l.003.002Z" fill="#1A83C3"/><path d="M153.32 15.488v.8H46.006c-.082-.232.092-.8.3-.8H153.32ZM96.766 32.675v.799h-50.46c-.208 0-.382-.567-.3-.8h50.76ZM153.319 32.675h-47.362v.799h47.362v-.8ZM102.518 29.719c.645.64-.082 2.07-.955 2.158v.298c.395.312.739.272.599.901.819.178.054-.663.2-.8h1.998c.064.52-.014.315-.292.407-.421.14-1.029.63-1.109 1.089-.104.59.52.19.746.144.949-.188.222.587-.152.847-.991.681-1.077-.088-1.689-.088-.353 0-.673.412-1.197.412-2.08 0-2.682-2.265-.707-3.022.16-.132-1.145-1.673.216-2.478.653-.388 1.798-.41 2.344.132h-.002Zm-1.755.158c-.05.29-.086 1.583.498 1.397.551-.174.447-1.71-.498-1.397Zm-.599 2.798c-.036.751-.172 1.812.897 1.798.879-.387-.636-2.08-.897-1.798ZM55.2 39.969c-.087.323-.72.404-1.01.21-.561-.376-.312-2.165-2.082-2.317-1.965-.167-2.938 1.303-3.108 3.102-.288 3.024 1.161 6.13 4.584 4.385.716-.364 1.395-1.597 2.009-.772-.474 2.102-3.525 2.806-5.402 2.396-6.147-1.343-4.037-12.308 3.014-10.008.543.178.452.584.711-.104l1.281.01v3.098h.002ZM62.393 45.664h.801v1.2l-2.681.007-.216-.41c-1.38 1.146-3.913.772-3.915-1.298 0-2.444 3.773-2.492 3.82-2.818.037-.32-.015-1.64-.329-1.689l-1.189.206c-.124.18.296 1.097-.484 1.509-1.167.615-2.164-1.2-.793-2.194 1.093-.796 3.24-1.074 4.295-.118.134.122.691 1.041.691 1.107v4.498Zm-1.998-2c-1.138.008-2.123.47-1.779 1.779 1.587.631 1.984-.292 1.779-1.78ZM77.781 43.066h-4.296c-.59 0-.026 1.745.293 2.105.77.867 1.937.51 2.796-.016.188-.116.372-.446.53-.482.22-.05.607.336.661.52.222.749-1.552 1.644-2.17 1.78-2.954.646-4.908-1.257-4.612-4.212.445-4.44 7.28-4.417 6.8.305h-.002Zm-1.998-1c.014-1.748-2.17-1.965-2.402-.303-.052.378.012.29.3.302.697.032 1.404-.022 2.1 0h.002ZM85.574 43.066h-4.296c-.454 0-.128 1.008-.048 1.247.641 1.947 2.494 1.727 3.665.36 1.806.761-.672 2.174-1.663 2.346-2.968.516-4.828-1.537-4.442-4.442.555-4.197 7.372-4.197 6.784.49Zm-1.998-1c.148-2.075-2.506-1.841-2.398 0h2.398ZM87.573 41.068c-1.001.412-1.073-.062-.997-.995.591-.092 1.28-.128 1.856-.242.462-.092.676-.556 1.323-.146l.116.781c.644-.685 1.501-1.27 2.446-.845 1.561.703.222 2.958-1.15 1.94-.207-.151-.12-.663-.495-.495-.175.078-.9.961-.9 1.097v3.497h.8v1.2h-3.796c.046-.268-.094-.792.03-.97.036-.052.769-.3.769-.53v-4.296l-.002.004ZM67.189 45.664h.801v1.2h-3.797c.046-.269-.094-.792.03-.97.036-.052.77-.3.77-.53v-4.296c-1.01.413-1.068-.066-1-1l3.2-.401.1.8c.467-.526 1.26-1.08 1.988-1.002 1.537.164 1.609 2.48-.19 2.204-.481-.074-.537-.557-.979-.595-.176.04-.92.951-.92 1.091v3.497l-.003.002ZM133.735 36.072v3.997c1.255-.302 2.252-1.051 3.503-.206.28.19.893 1.015.893 1.305v4.496h1v1.2h-3.797l.03-.97c.403-.132.693-.276.769-.727.116-.686.072-3.38-.304-3.895-.499-.688-1.962-.31-2.096.495-.188 1.137.136 2.702.002 3.895 1.157-.397 1.209 1.203.697 1.203h-3.497c.046-.268-.096-.79.034-.967.046-.062.766-.324.766-.731v-7.494h-1l.02-.98c.526-.291 1.123-.14 1.645-.255.402-.09.783-.538 1.335-.364v-.002ZM106.158 40.269l-.982-.018c-.289-.944-.589-2.203-1.722-2.375-3.012-.453-3.54 2.75-3.278 5.074.284 2.52 2.447 3.717 4.653 2.282.355-.231.789-.86 1.059-.94.807-.242 1.091.295.575.977-1.596 2.116-4.952 2.406-6.998.793-3.885-3.06-1.239-10.216 3.953-9.349.655.11 1.523.894 1.659.148l1.081.01v3.398ZM121.745 45.664h.801v1.2l-2.682.007-.216-.41c-1.379 1.146-3.913.772-3.915-1.298 0-2.05 2.363-2.3 3.823-2.818l-.034-1.355c-.132-.462-1.281-.446-1.486-.136-.272.412.185.997-.41 1.387-.987.648-2.06-.416-1.367-1.567.787-1.303 3.667-1.636 4.792-.615.134.122.692 1.04.692 1.107v4.496l.002.002Zm-1.999-2c-.865-.206-2.586.92-1.754 1.758.499.504 1.229.11 1.724-.19l.03-1.568Z" fill="#fff"/><path d="M110.498 39.513c2.94-.508 4.603 1.897 4.243 4.64-.176 1.337-1.559 2.72-2.898 2.898-5.381.713-5.609-6.803-1.345-7.538Zm.19 1.187c-1.463.438-1.295 5.36.568 5.358 1.862-.002 1.66-5.172.2-5.394a1.91 1.91 0 0 0-.768.036ZM146.726 43.066h-4.297c-.606 0-.09 1.523.126 1.873.577.94 1.89.893 2.764.416.227-.126 1.179-1.046 1.407-.188.207.777-1.567 1.67-2.187 1.806-3.019.66-4.992-1.407-4.596-4.396.56-4.213 7.196-4.187 6.785.49h-.002Zm-1.999-1c.008-1.95-2.496-1.887-2.398 0h2.398ZM153.322 39.667v2.4l-.979-.022c.072-1.343-2.77-2.056-2.628-.68.084.802 2.06 1.056 2.746 1.46 2.713 1.594 1.141 4.662-2.029 4.226-.373-.052-.747-.32-1.041-.34-.386-.026-.985.298-1.469.152v-2.4c1.135-.24 1.029.376 1.591.91.506.48 1.425.673 2.084.467.38-.12.478-.87.204-.99-1.047-.46-3.583-1.17-3.839-2.321-.336-1.505.536-2.85 2.071-3.048 1.119-.144 2.104.498 3.287.188l.002-.002ZM126.486 39.513c.909-.158 2.456.13 3.029.88 1.285 1.674-.787 2.923-1.483 1.88-.269-.406.174-1.413-.413-1.583-.794-.232-1.521.216-1.787.968-.591 1.676-.174 4.47 2.17 3.966.612-.132 1.285-.911 1.457-.949.22-.05.608.336.662.52.228.777-1.849 1.772-2.492 1.858-5.268.7-5.648-6.752-1.145-7.538l.002-.002ZM106.658 19.085c.07.018.251.226.281.318.242.736-.172.74-.763.9-.426.605 1.229 4.4.981 5.377.414-.084.334-.407.4-.697.452-1.983 1.077-3.963 1.71-5.907.404.055 1.148-.146 1.391.203.67 1.91 1.191 3.87 1.795 5.802.06.194.036.455.298.4.331-1.71.719-3.48 1.399-5.097l-.8-.098v-1.199h3.2l-.02.98c-.588.13-1.071.423-1.281 1.017l-2.25 7.342c-.114.54-1.108.61-1.457.366-.308-.216-1.763-5.3-1.987-6.107l-1.892 6c-.224.32-1.147.29-1.409 0l-2.724-8.065c-.106-.341-.438-.316-.751-.348l-.016-1.184h3.897l-.002-.003ZM89.97 27.679h.802v.999h-3.597l.01-.991.562-.028c.317-.862.45-4.067-.368-4.479-.346-.174-1.403-.158-1.403.202v4.297h.802v.999H83.18c-.263-1.11.282-.885.506-1.185.142-.19.172-3.497.06-3.877-.224-.773-1.205-.528-1.767-.332v4.397h.802v.999h-3.797c-.39-.756.8-1.17.8-1.3v-4.096h-.802v-1.199c.797.314 1.914-.472 2.494-.41.328.036.51.428.771.388.216-.032.47-.316.837-.372 1.5-.235 2.179.608 2.594.604.232 0 .776-.48 1.243-.564.768-.14 1.903-.172 2.46.448.1.112.594.947.594 1.005v4.497l-.004-.002ZM51.902 19.085c.825.116 2.332.944 2.61 1.787.317.97.068 2.42-.718 3.104-.39.34-1.187.37-1.393.903.742.15 1.043 1.205 1.513 1.786.176.218.576.69.777.824.616.405.864-.104.708 1.189l-2.6-.1c-.915-.592-1.713-3.33-2.696-3.501-.444-.078-.296.193-.302.5-.014.699.01 1.402 0 2.1h1.201v.999h-4.196l.014-.985c.221-.04.557 0 .695-.202.026-.04.288-.864.288-.912v-6.295h-1v-1.199c1.59.16 3.56-.215 5.097 0l.002.002Zm-2.099 4.797c2.023.301 3.004-.612 2.558-2.658-.168-.772-1.467-1.401-2.162-1.041-.078.04-.396.373-.396.401v3.298ZM72.985 21.683v4.896c0 .038.252.638.296.704.407.615 1.902-.106 1.902-.504v-3.497h-.999v-1.199c1.095.21 1.942-.481 2.998-.4v5.796l.713.186.086 1.013-2.682.01-.216-.41c-1.04.866-2.99 1.051-3.787-.21-.06-.096-.311-.65-.311-.687v-4.097h-1v-1.199c1.096.21 1.943-.482 2.998-.4l.002-.002ZM68.79 21.681v2.6c-.99.224-1.033-.701-1.698-1.2-.863-.646-1.922-.676-1.709.683.056.355 3.472.905 3.767 2.254.546 2.492-1.315 3.161-3.45 2.854-.662-.096-.812-.734-1.02.016l-.897-.098c-.39-.258-.102-1.805-.19-2.31l1.185.016c-.012 1.113 1.812 1.734 2.622 1.07.168-1.168-1.749-1.348-2.59-1.804-1.331-.72-1.889-1.962-.913-3.277 1.033-1.391 3.413-.488 4.892-.804h.002ZM98.164 25.08h-4.097c-.637 0-.084 1.921.506 2.29.737.465 1.545.293 2.266-.117.584-.334.62-1.031 1.317-.054-1.67 2.864-6.277 2.138-6.59-1.413-.444-5.01 6.856-5.851 6.598-.705Zm-2.234-2.16c-.19-.241-1.037-.305-1.365-.14-.25.127-.98 1.126-.797 1.302h2.398c.052-.052-.156-1.056-.236-1.162ZM62.393 25.08h-4.397c-.088 1.991 1.153 3.266 3.072 2.173.238-.136.493-.53.645-.564.478-.108.858.634.372 1.183-1.025 1.16-3.633 1.387-4.88.498-1.125-.805-1.589-2.41-1.365-3.745.68-4.079 7.012-4.053 6.55.458l.003-.002Zm-2.239-2.158c-.727-.727-2.246.07-1.956 1.157h2.198c.096-.09-.082-.997-.242-1.157ZM140.131 25.08h-4.097c-.098 0-.306.299-.3.488.026.898.901 2.167 1.885 2.11.849-.047 1.72-1.003 2.01-1.006.953-.018.45 1.119-.226 1.576-1.045.708-2.586.88-3.775.438-2.929-1.085-2.498-6.425.652-6.96 2.51-.426 4.058.779 3.853 3.353l-.002.002Zm-1.997-.998c.372-1.811-1.976-1.929-2.202-.302-.052.377.012.29.3.301.631.029 1.273-.02 1.902 0ZM153.322 21.681v2.6l-.987-.012c.288-1.395-2.604-2.244-2.622-.887-.008.677 2.27 1.135 2.88 1.529 1.736 1.12 1.532 3.653-.576 3.96-.891.13-1.687-.173-2.392-.173-.406 0-.987.337-1.499.182v-2.4c1.187-.304.983.513 1.695 1.005.609.421 1.505.583 2.112.084.168-1.175-1.75-1.345-2.59-1.805-.575-.316-1.105-.693-1.209-1.389-.168-1.115.076-1.758 1.001-2.384 1.068-.721 2.91.016 4.189-.31h-.002ZM128.539 23.082h-.999l.022-1.177c.36-.134.887-.28 1.171-.527.626-.548.51-1.62 1.805-1.293v1.8h1.798v1.201h-1.798v3.897c0 .214.611.518.899.518.771 0 .791-.924 1.697-.416.012 1.886-3.226 2.456-4.203 1.105-.08-.112-.392-.761-.392-.807V23.082ZM117.349 23.282h-.999v-1.199c1.095.21 1.942-.481 2.997-.4l.1 1c.584-.962 2.418-1.557 3-.402.543 1.079-.868 2.06-1.703 1.295-.194-.178-.14-.652-.496-.494-1.324.596-.833 3.098-.879 4.275a.353.353 0 0 0 .176.23c.508.305.751-.228.602 1.09h-3.598l.012-.99c.36.12.788-.17.788-.508v-3.897ZM142.129 23.282h-.802v-1.199c1.031.202 1.823-.404 2.798-.4l.1 1c.661-.77 1.129-1.105 2.19-.99 1.597.176.879 2.53-.36 2.165-.511-.152-.653-1.241-1.426-.372-.558.627-.708 3.121-.482 3.87a.366.366 0 0 0 .176.23c.507.306.751-.227.601 1.092h-3.597l.016-.983c.218.004.784-.116.784-.316v-4.097h.002ZM126.142 21.683v5.696c0 .2.566.32.784.316l.015.983h-3.597c.034-.282-.054-.612-.01-.873.012-.068.81-.44.81-1.026v-3.497h-.999v-1.199c1.095.21 1.942-.481 2.997-.4Z" fill="#fff"/><path d="M96.75 18.302c.127.184-.029 1.021-.172 1.251-.112.18-.43.232-.616.42-.765.771-.91 1.429-1.986.697.467-1.249 1.113-3.26 2.773-2.37v.002ZM59.727 18.118c.867-.256 1.525.082 1.237 1.037-.074.248-1.842 1.969-2.05 1.923-1.233-.274.311-2.812.813-2.96ZM126.102 18.526c1.031 1.031-.646 3.076-1.771 1.67-.911-1.137.843-2.597 1.771-1.67ZM49.503 6.496c.624.105 1.461.835 1.513 1.492.14 1.775-1.52 2.332-3.012 2.304v1.6c.408.04.936-.235.8.397-.516.172-2.2.54-2.2-.298l.401-.1V6.895h-.4v-.4c.89.104 2.053-.143 2.898 0ZM48.006 9.89c1.413-.036 2.419-.724 1.967-2.266-.188-.64-1.745-1.091-1.943-.408l-.024 2.674ZM101.977 11.88l.586.011c-.022.971-1.327.504-2.001.6-.07-.562-.006-.512.416-.712l-.228-1.075-2.072-.022-.33 1.097c.016.178.59.004.414.41-.204.473-1.155.268-1.599.302l2.5-6.195c.304-.092.422.263.512.485.535 1.325 1.269 2.988 1.692 4.307.086.272.088.517.108.793l.002-.002Zm-2.214-3.988c-.478-.044-.328-.032-.412.284-.393 1.485-1.337 2.336 1.014 2.114.101-.863-.63-1.528-.602-2.398ZM84.576 11.891l.36.03.042.57c-.608-.066-1.38.234-1.797-.3.204-.166.352-.328.4-.6.096-.545.058-2.008.01-2.611-.04-.524-.554-.056-.412-.686.396.07.74-.138 1.103-.174.164-.016.37.138.566.122.655-.05.819-.583 1.72-.038 1.034.626.79 2.504.8 3.567l.411.218c.006.763-1.31.448-1.8.5-.068-.55.346-.734.41-1.287.057-.498-.005-2.145-.398-2.422-.306-.216-1.411-.11-1.411.212v2.897l-.004.002ZM141.937 11.885l.594.006c0 .92-1.145.534-1.799.6-.06-.408.332-.498.4-.897.068-.4.068-1.789 0-2.2-.146-.88-1.235-.878-1.809-.378v2.757c.034.19.582.016.41.416-.172.4-1.251.398-1.599.204-.371-.208.148-.456.204-.802.062-.381-.05-.817-.008-1.204.058-.53.312-1.03.212-1.59-.046-.259-.831.145-.607-.5.395.07.739-.139 1.103-.175.164-.016.369.138.563.122.704-.054.896-.627 1.837.046.941.674.32 2.556.501 3.597l-.002-.002ZM91.814 11.861c.046.062.52-.056.355.328-.343.803-1.367-.034-1.496-.044-.286-.02-1.012.69-1.9.246-1.857-.925.697-2.718 1.996-2.502.22-1.471-1.493-2.152-1.397-.394-.494.046-1.13.034-.914-.613.32-.952 2.335-1.201 2.924-.502.743.883.146 3.101.43 3.481h.002Zm-1.043-1.569c-2.037.14-2.32 2.203-.019 1.38l.019-1.38ZM126.19 11.857c.08.104.524-.084.352.632-.514.158-1.091-.18-1.499-.18-.238 0-.508.166-.795.186-1.022.072-1.689-.124-1.507-1.305.182-1.181 2.376-1.195 2.41-1.413l-.198-1.197-1.007-.088c.08.833-.148 1.111-1.003.997-.25-1.443 1.912-2.02 2.805-1.109.822.837.104 3.04.438 3.473l.004.004Zm-1.047-1.367c-1.921-.203-2.308 2.09-.018 1.181l.018-1.18ZM80.317 7.946c.93-.04 2.078.976 2.22 1.893.16 1.03-.545 2.474-1.665 2.644-3.684.557-3.465-4.409-.555-4.537Zm-.406.576c-1.013.302-1 2.74-.04 3.377 1.923 1.28 2.233-4.032.04-3.377ZM112.892 7.946c.934-.038 2.079.972 2.221 1.893.159 1.029-.546 2.474-1.665 2.644-3.721.561-3.413-4.42-.556-4.537Zm-.407.576c-1.014.302-1.002 2.74-.04 3.377 1.922 1.28 2.232-4.033.04-3.377ZM133.594 8.55c1.412-1.427 4.002.014 3.707 1.992-.432 2.88-4.659 2.618-4.371-.557.038-.414.378-1.145.666-1.435h-.002Zm2.3 3.3c.641-.66.525-3.02-.492-3.326-1.826-.552-1.776 2.852-.939 3.377.364.23 1.135.252 1.431-.052ZM58.948 8.544c.334.31.665 1.175.665 1.649-.006 3.021-4.514 3.185-4.424-.005.032-1.145 1.093-2.322 2.276-2.248.202.012 1.34.472 1.483.604Zm-2.019-.018c-1.19.348-.953 4.093.938 3.535 1.077-.318 1.163-4.15-.938-3.535Z" fill="#fff"/><path d="M109.758 8.092v1.599c-.544.136-.44-.434-.706-.793-.427-.574-1.309-.58-1.301.098.012.967 3.378 1.167 2.183 2.971-.67 1.011-2.199.186-3.174.522V10.89l.592.004c.03 1.023.973 1.575 1.814.885.156-1.089-.825-.927-1.481-1.313-.739-.433-1.297-1.209-.621-1.968.675-.76 1.818-.394 2.696-.404l-.002-.002ZM63.193 7.093l-.79-.01-.01-.59-.593.005-.208 1.596h1.199c.036.728-.667.622-1.2.6l-.007 3.08c.408.211.482.16.408.717h-1.6c.295-1.241.197-2.522.19-3.791l-.59-.006v-.6c.986.216.619-.815.9-1.399.474-.985 2.626-1.063 2.299.398h.002ZM70.789 8.092v1.601h-.6c.342-1.243-1.536-1.735-1.408-.5.091.876 2.318.552 2.224 2.2-.094 1.65-2.15.872-3.214 1.096V10.89c.652-.12.616.725.84.957.377.388 1.427.284 1.55-.274.196-.883-3.215-1.019-2.292-2.881.532-1.071 1.973-.548 2.898-.6h.002ZM74.784 8.092v1.601h-.598c.26-1.54-1.778-1.373-1.594-.516.158.732 3.217.858 2.292 2.716-.546 1.093-2.154.33-3.097.598v-1.599c.631-.102.511.616.797.901.427.43 1.463.378 1.595-.22.195-.885-3.216-1.019-2.293-2.881.532-1.071 1.973-.548 2.898-.6ZM64.192 10.093c-.09 1.159.367 2.058 1.662 1.76.428-.098.684-.553 1.035-.563.458.531-.575 1.06-1.037 1.16-2.542.546-3.87-2.413-1.962-3.96.937-.76 2.764-.6 3.067.74.324 1.424-1.9.695-2.765.863Zm0-.402c.473-.05 2.094.25 1.98-.476-.194-1.227-2.324-.917-1.98.476ZM146.863 8.132c.797-.178 1.824-.114 2.354.568 1.387 1.784-.206 4.456-2.504 3.703-1.773-.582-1.663-3.867.15-4.27Zm.187.388c-1.133.35-.887 4.089.944 3.541 1.141-.342 1.157-4.193-.944-3.541ZM105.759 8.092v1.599L104.63 8.52c-.385-.13-.883 0-.877.476.012.967 3.377 1.167 2.182 2.971-.665 1.005-2.052.194-2.971.524-.116-.446-.468-1.34.098-1.599.369-.17.311.444.487.708.414.621 1.055.627 1.617.18.156-1.092-.825-.928-1.481-1.314-1.397-.825-.969-2.426.604-2.522.391-.024.981.294 1.468.15l.002-.002ZM152.497 6.521l-.568-.021-.208 1.594h1.199c.036.728-.667.622-1.199.6l-.008 3.08c.408.211.482.16.408.717h-1.599c-.06-.408.332-.498.4-.898.142-.845-.096-2.006-.01-2.891l-.592-.006v-.6l.59-.008c-.414-1.51 1.629-3.017 2.512-1.594.374.601-.837.97-.927.027h.002ZM119.547 9.491l-.807-.092-.078-.711-.222-.186c-2.178-.628-2.298 3.745.012 3.39.513-.08.573-.656 1.099-.602.198.681-.793 1.115-1.303 1.19-2.952.446-3.295-3.363-1.281-4.276 1.123-.51 2.724-.174 2.584 1.285l-.004.002ZM128.54 7.093v1.001h1.201v.6h-1.201c.144.663-.397 3.235.504 3.205.332-.01.615-.57 1.095-.407-.16 1.147-2.004 1.39-2.498.4-.282-.568.038-3.086-.108-3.192l-.591-.006c-.156-.73.231-.534.611-.886.424-.393.264-.883.989-.713l-.002-.002ZM53.049 11.857c.07.098.538-.068.354.632-.608-.066-1.38.234-1.797-.3.204-.166.352-.328.4-.6.078-.45.082-2.342.008-2.791-.044-.264-.836.144-.608-.506l1.487-.216.21.416c.406-.747 2.17-.68 1.898.298-.21.753-1.105-.126-1.274-.09-.422.324-.686.527-.732 1.079-.028.332-.04 1.94.058 2.076l-.004.002ZM93.967 6.096v5.795h.6c-.007.928-1.16.53-1.8.6-.133-.482.333-.708.4-1.097.112-.636.116-3.955.008-4.59-.035-.214-.427-.079-.61-.107-.037-.51-.033-.333.3-.395.37-.07.722-.212 1.102-.204v-.002ZM77.18 8.094v3.797l.402.1c0 .768-1.305.446-1.8.5-.134-.482.331-.708.4-1.097.073-.42.077-2.177.007-2.592-.036-.214-.427-.078-.61-.106-.037-.508-.035-.334.3-.398.434-.082.852-.244 1.302-.202v-.002ZM131.937 8.094v3.797l.402.1c0 .768-1.305.446-1.8.5-.06-.408.331-.498.399-.898.076-.453.084-2.346.008-2.793-.036-.214-.427-.078-.609-.106-.038-.508-.036-.334.299-.398.434-.082.852-.244 1.301-.202ZM121.745 8.094v3.797l.402.1c0 .768-1.305.446-1.801.5-.059-.408.332-.498.4-.897.076-.456.084-2.345.008-2.794-.036-.214-.427-.078-.609-.106-.026-.492-.06-.352.305-.392.45-.048.85-.18 1.295-.208ZM76.295 6.308c.932-.276 1.175.795.574.975-.931.276-1.175-.795-.574-.975ZM130.939 7.295V6.294c1.391-.176 1.355 1.189 0 1.001ZM120.748 7.295V6.294c1.391-.176 1.355 1.189 0 1.001ZM157.457.339c2.848-.604 4.361 2.723 2.16 4.358-1.604 1.191-3.978-.152-3.91-2.096.031-.95.799-2.06 1.75-2.262Zm.198.4c-1.946.44-1.941 3.484 0 3.92 3.275.737 3.311-4.672 0-3.92Z" fill="#fff"/><path d="M159.074 1.74c.512.515-.078.945-.12 1.286-.03.252.244.564.162.872-.54.156-.626-.716-.899-.8l-.898.8v-2.4c.456.01 1.433-.086 1.757.241h-.002Zm-.358.957c.124-1.1-1.121-1.1-.999 0h.999Z" fill="#fff"/><path d="M153.03 52.499v.885h-2.171l-.165 1.129c.131-.017.243-.026.408-.026.495 0 .99.113 1.372.364.425.27.738.747.738 1.433 0 1.076-.894 1.953-2.283 1.953-.651 0-1.198-.165-1.493-.33l.217-.807c.243.13.729.295 1.241.295.625 0 1.224-.356 1.224-1.033 0-.643-.477-1.068-1.606-1.068-.313 0-.547.018-.773.052l.374-2.847h2.917ZM148.792 58.142h-3.828v-.652l.668-.616c1.329-1.233 1.954-1.91 1.962-2.656 0-.504-.269-.947-1.007-.947-.495 0-.92.252-1.206.47l-.313-.756c.408-.33 1.024-.582 1.736-.582 1.25 0 1.858.79 1.858 1.71 0 .99-.712 1.789-1.693 2.7l-.495.426v.017h2.318v.886ZM142.471 52.403c1.363 0 1.997 1.216 1.997 2.883 0 1.814-.712 2.951-2.057 2.951-1.303 0-1.997-1.18-2.006-2.9 0-1.753.747-2.934 2.066-2.934Zm-.026.816c-.573 0-.972.703-.963 2.119-.009 1.371.373 2.083.963 2.083.625 0 .955-.764.955-2.118 0-1.311-.312-2.084-.955-2.084ZM139.83 58.142h-3.828v-.652l.668-.616c1.329-1.233 1.954-1.91 1.962-2.656 0-.504-.269-.947-1.007-.947-.494 0-.92.252-1.206.47l-.313-.756c.408-.33 1.025-.582 1.736-.582 1.25 0 1.858.79 1.858 1.71 0 .99-.712 1.789-1.693 2.7l-.495.426v.017h2.318v.886ZM131.657 58.142v-2.865c0-.573-.009-.981-.035-1.363h.929l.035.807h.034c.209-.599.704-.903 1.155-.903.104 0 .165.009.252.026v1.007a1.497 1.497 0 0 0-.313-.034c-.512 0-.859.33-.955.807a1.87 1.87 0 0 0-.034.33v2.188h-1.068ZM130.94 56.327h-2.83c.026.764.625 1.094 1.303 1.094.494 0 .85-.07 1.171-.19l.157.737c-.365.148-.868.26-1.476.26-1.372 0-2.179-.842-2.179-2.135 0-1.172.712-2.275 2.066-2.275 1.372 0 1.823 1.129 1.823 2.058 0 .2-.017.356-.035.451Zm-2.83-.746h1.858c.009-.391-.165-1.033-.877-1.033-.659 0-.937.599-.981 1.033ZM123.327 58.142h-.912c.017-.287.035-.756.035-1.19v-4.974h1.068v2.517h.017c.26-.407.72-.677 1.354-.677 1.033 0 1.771.86 1.762 2.145 0 1.519-.963 2.274-1.918 2.274-.547 0-1.033-.208-1.337-.73h-.017l-.052.635Zm.191-2.431v.686c0 .087.008.173.026.251a.984.984 0 0 0 .946.747c.668 0 1.076-.538 1.076-1.389 0-.747-.356-1.354-1.067-1.354-.435 0-.825.312-.947.781a1.303 1.303 0 0 0-.034.278ZM115.265 58.142v-2.97c0-.485-.008-.893-.035-1.258h.921l.043.625h.026c.208-.33.59-.72 1.302-.72.556 0 .99.312 1.172.78h.018c.147-.234.321-.407.521-.529a1.41 1.41 0 0 1 .85-.252c.703 0 1.415.478 1.415 1.832v2.492h-1.041v-2.336c0-.703-.243-1.12-.756-1.12-.364 0-.633.26-.746.565a1.531 1.531 0 0 0-.052.356v2.535h-1.042v-2.449c0-.59-.235-1.006-.729-1.006-.4 0-.669.312-.764.607a.902.902 0 0 0-.061.347v2.5h-1.042ZM114.548 56.327h-2.83c.026.764.625 1.094 1.302 1.094.495 0 .851-.07 1.172-.19l.156.737c-.364.148-.868.26-1.476.26-1.371 0-2.179-.842-2.179-2.135 0-1.172.712-2.275 2.066-2.275 1.372 0 1.824 1.129 1.824 2.058 0 .2-.018.356-.035.451Zm-2.83-.746h1.858c.008-.391-.165-1.033-.877-1.033-.66 0-.938.599-.981 1.033ZM109.009 58.142l-.113-2.388c-.035-.755-.078-1.667-.07-2.457h-.026a31.488 31.488 0 0 1-.694 2.24l-.851 2.535h-.825l-.781-2.5a29.032 29.032 0 0 1-.59-2.275h-.018c-.026.764-.06 1.693-.104 2.492l-.13 2.353h-.998l.39-5.852h1.407l.764 2.353c.208.686.39 1.38.538 2.031h.026a28.8 28.8 0 0 1 .581-2.04l.808-2.344h1.389l.338 5.852h-1.041Z" fill="#fff" fill-opacity=".5"/></svg>