<svg viewBox="0 0 64 64" xmlns="http://www.w3.org/2000/svg"><rect x="28.516" y="3.858" width="32.397" height="46.796" rx="3.6" transform="rotate(26.147 28.516 3.858)" fill="#FFBE72"/><rect x="30.16" y="8.676" width="5.4" height="5.4" rx=".9" transform="rotate(26.147 30.16 8.676)" fill="#fff"/><rect x="26.988" y="15.138" width="25.198" height="5.4" rx=".9" transform="rotate(26.147 26.988 15.138)" fill="#fff"/><rect x="23.816" y="21.601" width="19.798" height="5.4" rx=".9" transform="rotate(26.147 23.816 21.601)" fill="#fff"/><rect x="20.641" y="28.064" width="25.198" height="16.199" rx=".9" transform="rotate(26.147 20.64 28.064)" fill="#fff"/><rect x="16.984" y="6.723" width="32.397" height="46.796" rx="3.6" transform="rotate(13.074 16.984 6.723)" fill="#32A808"/><rect x="19.676" y="11.044" width="5.4" height="5.4" rx=".9" transform="rotate(13.074 19.676 11.044)" fill="#fff"/><rect x="18.047" y="18.056" width="25.198" height="5.4" rx=".9" transform="rotate(13.074 18.047 18.056)" fill="#fff"/><rect x="16.418" y="25.07" width="19.798" height="5.4" rx=".9" transform="rotate(13.074 16.418 25.07)" fill="#fff"/><rect x="14.789" y="32.082" width="25.198" height="16.199" rx=".9" transform="rotate(13.074 14.79 32.082)" fill="#fff"/><rect x="6.398" y="12.123" width="32.397" height="46.796" rx="3.6" fill="#88BFFF"/><rect x="9.996" y="15.722" width="5.4" height="5.4" rx=".9" fill="#fff"/><rect x="9.996" y="22.922" width="25.198" height="5.4" rx=".9" fill="#fff"/><rect x="9.996" y="30.121" width="19.798" height="5.4" rx=".9" fill="#fff"/><rect x="9.996" y="37.32" width="25.198" height="16.199" rx=".9" fill="#fff"/></svg>