<svg viewBox="0 0 40 40" xmlns="http://www.w3.org/2000/svg"><rect x="6" y="9" width="18.189" height="25.984" rx="1.37" fill="#C1C1C1"/><rect x="8.599" y="11.599" width="2.598" height="2.598" rx=".343" fill="#fff"/><rect x="8.599" y="15.496" width="12.992" height="2.598" rx=".343" fill="#fff"/><rect x="8.599" y="19.394" width="10.394" height="2.598" rx=".343" fill="#fff"/><rect x="8.599" y="23.292" width="12.992" height="9.095" rx=".343" fill="#fff"/><g filter="url(#a)"><path d="m27.318 15.078 5.637 5.637c.309.31.309.81 0 1.12l-1.12 1.12c-.31.309-.81.309-1.12 0l-5.637-5.638 2.24-2.239Z" fill="#fff"/><circle cx="22.729" cy="12.729" r="6.729" fill="#fff"/><circle cx="22.729" cy="12.729" r="4.354" fill="#32A808"/><path fill-rule="evenodd" clip-rule="evenodd" d="M25.244 11.23a.47.47 0 0 0-.664 0l-2.328 2.327-.995-.995a.47.47 0 1 0-.664.664l1.321 1.32.006.007a.468.468 0 0 0 .68-.015l2.644-2.644a.47.47 0 0 0 0-.664Z" fill="#fff"/></g><defs><filter id="a" x="13" y="4" width="23.187" height="23.186" filterUnits="userSpaceOnUse" color-interpolation-filters="sRGB"><feFlood flood-opacity="0" result="BackgroundImageFix"/><feColorMatrix in="SourceAlpha" values="0 0 0 0 0 0 0 0 0 0 0 0 0 0 0 0 0 0 127 0" result="hardAlpha"/><feOffset dy="1"/><feGaussianBlur stdDeviation="1.5"/><feComposite in2="hardAlpha" operator="out"/><feColorMatrix values="0 0 0 0 0 0 0 0 0 0 0 0 0 0 0 0 0 0 0.25 0"/><feBlend in2="BackgroundImageFix" result="effect1_dropShadow_3300_305"/><feBlend in="SourceGraphic" in2="effect1_dropShadow_3300_305" result="shape"/></filter></defs></svg>