<svg xmlns="http://www.w3.org/2000/svg" viewBox="0 0 64 64"><defs><style>.cls-1{fill:#fce1dc;}.cls-2{fill:#ff5e59;}.cls-3,.cls-5{fill:#fff;}.cls-3,.cls-4,.cls-6{stroke:#3b5473;}.cls-3,.cls-4{stroke-miterlimit:10;}.cls-4,.cls-6{fill:none;}.cls-6{stroke-linejoin:round;}</style></defs><g id="Fill"><path class="cls-1" d="M50.19,46.35V7.55a45.57,45.57,0,0,0-8.31-.77V47.94"/><path class="cls-1" d="M39.49,48.17c0,1-.27-.9-.16-1.35,0-5.08-.2-10.16-.24-15.25,0-4.81.26-9.61.34-14.39a2.64,2.64,0,0,0-1-2.4A3.09,3.09,0,0,0,37,14.47a22.12,22.12,0,0,0-2.7,0,3.73,3.73,0,0,0-1.37.29c-1.25.61-.8,2.48-.81,3.63,0,1.56,0,3.11,0,4.67q0,4.79,0,9.57c0,6.3.1,12.61.1,18.91"/><path class="cls-1" d="M30.2,51.05c-.06-.15.06-1.86,0-2,0-6.74-.6-13.47-.6-20.21V15.56c0-1.6.57-3.92-.6-5.19S25.87,9,24.27,9.58a3.92,3.92,0,0,0-2,1.18,3.74,3.74,0,0,0-.2,3c.59,2.44.33,5.22.36,7.73l.11,8.92.23,17.84"/><path class="cls-2" d="M20.35,46.63c0-6.54.14-18.51.19-25.05L20.05,21c-1-1.35-3.15-1.7-6.79-.1V38.13"/></g><g id="Stroke"><path class="cls-3" d="M11,47.07c-2.58-3.66-.06-10,7.38-10.64C12.92,47.62,26.52,49.21,30.2,51.05"/><path class="cls-3" d="M32.15,51.59a237,237,0,0,1,23.17-7.66A10.51,10.51,0,0,1,54,48.36"/><path class="cls-4" d="M50.19,39V8.2a.76.76,0,0,0-.65-.76,44.74,44.74,0,0,0-6.22-.63,1.41,1.41,0,0,0-1.44,1.42V47.94"/><line class="cls-4" x1="32.15" y1="25.54" x2="32.15" y2="52.28"/><path class="cls-4" d="M39.49,48.17a2,2,0,0,1-.16-1.35c0-9.75.3-19.54-.07-29.29,0-1,0-3-1-3.43a8.31,8.31,0,0,0-2.49,0H33a.87.87,0,0,0-.88.88v3.45"/><path class="cls-4" d="M29.75,51.05c-.06-.15-.15-40.35-.15-40.35a14.76,14.76,0,0,0-6-.89,1,1,0,0,0-1,1V46.62"/><path class="cls-4" d="M20.25,46.35c.05-6.54.14-18.52.19-25.06L20,20.73c-1.66,0-5.11-.82-6.37.57-1,1.1-.42,3.52-.42,4.94v5.29"/><path class="cls-5" d="M53.78,48a11.14,11.14,0,0,0,1.11-3.49,139,139,0,0,0-18.06,6.27,65,65,0,0,1,17-2.78"/><path class="cls-4" d="M6.77,54.71c6.26-.52,37.86-.79,50.15.74"/><path class="cls-4" d="M6.77,52.33c3-.25,16,.61,25.79.65,10.52,0,18-.7,24.36.09"/><path class="cls-4" d="M6.77,50.15c5.19,0,22.19,1.38,26.59,2.13,0,0,16.29-1.91,23.12-1.91"/><path class="cls-4" d="M7.84,46.76c4.12,0,21.63,3.39,25.52,5.52,0,0,11.88-4.44,22.64-3.87"/><path class="cls-6" d="M19.26,17a36.41,36.41,0,0,1-8.76-1,1,1,0,0,1,1.82-.52l-3.51,3"/><path class="cls-6" d="M21.23,17h4.68"/><path class="cls-6" d="M30.57,17.13q3.45-.22,6.9-.22"/><path class="cls-6" d="M40.13,17a25,25,0,0,0,6,0"/><path class="cls-6" d="M48.39,16.85a37.27,37.27,0,0,1,7.07.5"/></g></svg>