<svg viewBox="0 0 40 40" xmlns="http://www.w3.org/2000/svg"><rect y="1" width="12.174" height="17.391" rx="1.739" fill="#C1C1C1"/><rect x="1.739" y="2.739" width="1.739" height="1.739" rx=".435" fill="#fff"/><rect x="1.739" y="5.348" width="8.696" height="1.739" rx=".435" fill="#fff"/><rect x="1.739" y="7.956" width="6.957" height="1.739" rx=".435" fill="#fff"/><rect x="1.739" y="10.565" width="8.696" height="6.087" rx=".435" fill="#fff"/><rect x="13.913" y="1" width="12.174" height="17.391" rx="1.739" fill="#C1C1C1"/><rect x="15.652" y="2.739" width="1.739" height="1.739" rx=".435" fill="#fff"/><rect x="15.652" y="5.348" width="8.696" height="1.739" rx=".435" fill="#fff"/><rect x="15.652" y="7.956" width="6.957" height="1.739" rx=".435" fill="#fff"/><rect x="15.652" y="10.565" width="8.696" height="6.087" rx=".435" fill="#fff"/><rect x="27.826" y="1" width="12.174" height="17.391" rx="1.739" fill="#C1C1C1"/><rect x="29.565" y="2.739" width="1.739" height="1.739" rx=".435" fill="#fff"/><rect x="29.565" y="5.348" width="8.696" height="1.739" rx=".435" fill="#fff"/><rect x="29.565" y="7.956" width="6.957" height="1.739" rx=".435" fill="#fff"/><rect x="29.565" y="10.565" width="8.696" height="6.087" rx=".435" fill="#fff"/><rect y="20.391" width="12.174" height="17.391" rx="1.739" fill="#C1C1C1"/><rect x="1.739" y="22.131" width="1.739" height="1.739" rx=".435" fill="#fff"/><rect x="1.739" y="24.739" width="8.696" height="1.739" rx=".435" fill="#fff"/><rect x="1.739" y="27.348" width="6.957" height="1.739" rx=".435" fill="#fff"/><rect x="1.739" y="29.957" width="8.696" height="6.087" rx=".435" fill="#fff"/><rect x="13.913" y="20.391" width="12.174" height="17.391" rx="1.739" fill="#32A808"/><rect x="15.652" y="22.131" width="1.739" height="1.739" rx=".435" fill="#fff"/><rect x="15.652" y="24.739" width="8.696" height="1.739" rx=".435" fill="#fff"/><rect x="15.652" y="27.348" width="6.957" height="1.739" rx=".435" fill="#fff"/><rect x="15.652" y="29.957" width="8.696" height="6.087" rx=".435" fill="#fff"/><rect x="27.826" y="20.391" width="12.174" height="17.391" rx="1.739" fill="#C1C1C1"/><rect x="29.565" y="22.131" width="1.739" height="1.739" rx=".435" fill="#fff"/><rect x="29.565" y="24.739" width="8.696" height="1.739" rx=".435" fill="#fff"/><rect x="29.565" y="27.348" width="6.957" height="1.739" rx=".435" fill="#fff"/><rect x="29.565" y="29.957" width="8.696" height="6.087" rx=".435" fill="#fff"/></svg>