<svg version="1.1" id="Layer_1" xmlns="http://www.w3.org/2000/svg" x="0" y="0" viewBox="0 0 128 128" xml:space="preserve"><style>.st1{fill:#fff}.st3,.st5{fill:none;stroke:#3b5473;stroke-width:2;stroke-linejoin:round}.st5{stroke:#fff}</style><path d="M49.7 12.9c6.88-.46 13.78-.53 20.67-.19l37.28 1.1c1.23-.09 2.46.21 3.51.85 2.14 1.67 1.65 6.14 1.75 8.54l.45 11.59c.29 7.62.89 15.29.89 22.92.44 11.35.88 22.74-.26 34-.57 5.63-1.52 11.21-2.86 16.7-.3 1.79-1.03 3.48-2.12 4.93-2 2.25-5.24 2.69-8.21 3a496.292 496.292 0 01-73.26 1c-4.76-.29-11.49-1.51-11-7.54s-.14-11.7-.66-17.84c-1.25-14.9-1.29-29.87-.12-44.78.67-8.44 1.72-16.83 3.16-25.18.45-2.58 1-5.3 2.79-7.21 2.32-2.48 6.06-2.91 9.46-3 24.49-.95 49.16 5.44 73.36 1.59 2.76-.44 6.29-.67 7.63 1.78.43.94.63 1.97.59 3l.06 1.67" fill="#fce1dc"/><path class="st1" d="M102.18 101.03c-.09-9.54 1.59-20.55 1.62-30.13.04-.5-.05-1-.25-1.41-.19-.25-.43-.41-.69-.47-3.21-1.14-21.74-.11-21.72-.35-.3 3.28-.39 15.55-.39 18.44v12.45M55.05 58.64c.09-9.55-1.24-21.2-1.27-30.75-.04-.5.05-1 .25-1.41.2-.25.43-.41.69-.48 3.21-1.14 14.1-.86 16.16-.76.46 0 5.58.66 5.56.42.3 3.26.39 15.55.39 18.44v10.67c0 2.19-1.21 4.01-2.76 4.14l-2 .17M26.86 98.87c0-7.57-1.07-15.05-1.82-22.61-.25-1.53-.21-3.12.11-4.62 1.24-4.41 8.93-2.93 11.64-2.83 3.52.14 7.02.65 10.48 1.53 2 .51 2.55.35 2.59 3.36 0 2.4 0 4.82-.08 7.22-.2 4.93-1.21 18.03-1.32 20.17.11 1.49-.65 2.83-1.71 2.98-.18.03-.36.02-.54-.03-6.22.81-12.48.49-18.64-.95-.33-.03-.65-.19-.91-.47-.47-.61-.33-1.7-.14-2.57s.37-1.92-.06-2.59M76.45 97.56c.18-7.35 1.39-14.64 1.5-22.09.07-1.43-.03-2.86-.29-4.24-1.38-5.89-9.84-2.83-13-2.44-.67.1-10.51 1.53-10.52 1.14l.58 27.06c-.03 1.37.44 2.67 1.25 3.43.53.38 1.11.57 1.7.55 4.53.38 9.07.76 13.61.85a5.82 5.82 0 003.11-.52c1.09-.68 1.86-2.08 2.06-3.74z"/><path d="M49.12 58.64c-.06-6.88.92-16.08 1.26-23.01.13-2.45.13-4.91 0-7.36-.01-.38-.07-.75-.18-1.09-.31-.79-1.06-.9-1.69-.89-1.16 0-15.12-1.78-19.28-1.27-.48-.02-.94.2-1.32.61-.32.59-.49 1.32-.46 2.06-.12 2.73-.36 5.48-.51 8.18-.15 2.7.37 5.48.37 8.2v14.57" fill="#ff5e59"/><path class="st1" d="M102.38 59.18c1.06-7.28 1.7-14.67 1.92-22.1 0-2.01.53-13.28-1.29-13.28H91.59c-3.38.08-6.76.21-10.14.3.86 10.99.86 22.09 0 33.08"/><path class="st3" d="M103.26 87.54c0-4.83.52-10.47.54-16.63.04-.5-.05-1-.25-1.41-.19-.25-.43-.41-.69-.47-3.21-1.14-21.74-.11-21.72-.35-.3 3.28-.39 15.55-.39 18.44v12.45s.08 1.51 1.5 1.65 16.85.73 18.9.98c1.18.14 1.28-5.95 1.28-8.86M76.67 52.99c0-2.83.07-24.11-.23-27.37 0 .24-5.1-.4-5.56-.42-2.06-.1-12.95-.38-16.16.76-.26.07-.49.24-.69.48-.2.41-.29.91-.25 1.41 0 9.58 1.36 21.2 1.27 30.75 0 0 17.31.21 20.74.78M27 89.31c0-9.81-.19-10.03-.27-19.78 0-.59 9.17-.65 10-.61 3.52.14 7.02.65 10.48 1.53 2 .51 2.55.35 2.59 3.36 0 2.4 0 4.82-.08 7.22-.2 4.93.08 5.02-.67 9.89-.28 2.5-.44 5.02-.47 7.55-.1 1.81.09 3.7-1.29 4.65-.96.51-1.99.65-3 .42l-9.77-1.09-4.94-.51c-1-.1-2.62.44-3.21-1.13-.18-.59-.25-1.23-.2-1.87 0-1.61.09-3.22.16-4.83M54.69 91.33c-.19-9.02-.4-12.38-.6-21.41 0 0 20.41-2.12 21.16-1.3.51.58.42 4.59.5 5.57.22 2.58.39 5.17.52 7.77.24 5.19.3 10.4.18 15.55 0 0 .07 3.48-1.3 3.48-2.07 0-18 0-19.54.42-1.13.34-.78-1.41-.59-3.12M26.8 52.29c0-4.15-.51-13.79-.37-16.49s.39-5.45.51-8.18c-.03-.74.14-1.48.46-2.06.38-.41.84-.62 1.32-.61 4.16-.51 18.12 1.29 19.28 1.27.63 0 1.38.1 1.69.89.11.34.17.71.18 1.09.13 2.45.13 4.91 0 7.36-.34 6.92-1.32 16.12-1.26 23.01 0 0-12.51 1.2-20.74 1.41M86 25.61c-.78-.28-1.59-.4-2.39-.35-.81.04-1.57.55-2.1 1.41-.8 1.41 0 3.79.19 5.44.21 2.71.31 5.43.3 8.15.05 6.13-.15 12.27-.59 18.37 0 0 17.94.4 19.84 1.12 1.56.59 1.26-2.26 1.52-2.47a142.7 142.7 0 001.43-18.87c0-2.01.49-13.28-1.33-13.28l-11.42.07"/><path d="M109.15 12.68S43 9.47 22.47 13.53c-1.38.3-2.39 1.48-2.47 2.89-.92 11.47-4.7 62.35-2.36 95.41a3.226 3.226 0 003 3c21.54 1.08 43.14 1.9 64.7 1.65 8.42-.09 16.74-1 25.11-1.22.96-.11 1.92.08 2.77.54.9.65 1.21 1.84.74 2.84a2.11 2.11 0 01-2.74.89 3.295 3.295 0 01-1.43-2.45c-.58-3.21 1.08-6 1.15-9.09 0-2.17.16-4.33.24-6.5.2-5.91.37-11.82.51-17.74.35-15.22.49-30.46.2-45.69-.09-4.83-.22-9.65-.42-14.48" fill="none" stroke="#3b5473" stroke-width="2" stroke-miterlimit="10"/><path class="st5" d="M32.46 28.47c1.73 0 2.28-.61 2.42 2.64.08 1.94-2.14 1.61-3.36 1.61s-1.54-1.16-1.47-2.29c.11-1.96.12-1.96 2.41-1.96z"/><path class="st3" d="M87.46 28.81c1.73 0 2.28-.61 2.42 2.64.08 1.94-2.14 1.61-3.36 1.61-1.22 0-1.54-1.16-1.47-2.29.11-1.96.12-1.96 2.41-1.96zM70.24 71.74c1.73 0 2.28-.61 2.42 2.64.08 1.94-2.14 1.61-3.36 1.61-1.22 0-1.54-1.16-1.47-2.29.1-1.96.11-1.96 2.41-1.96zM98.02 71.74c1.73 0 2.28-.61 2.42 2.64.08 1.94-2.14 1.61-3.36 1.61s-1.54-1.16-1.47-2.29c.1-1.96.11-1.96 2.41-1.96z"/><path class="st5" d="M38.7 29.69s5.53-.59 7.75.3M38.7 33.2s4.26.64 7.75.3"/><path class="st3" d="M30.84 78.49c.1.02 9.84 1.37 14.74.48"/><path class="st5" d="M30.61 52.56c.1.02 9.84 1.37 14.74.48"/><path class="st3" d="M84.91 79.9c.1.02 9.84 1.37 14.74.48M30.79 83.31c.1.02 8.52.39 14.74.48"/><path class="st5" d="M30.61 47.23c.1.02 8.52.39 14.74.48"/><path class="st3" d="M30.84 97.2c.1.02 7.97-.4 14.74.48M30.84 91.63c1.44.18 3.22.53 4.86.52M95.14 90.26c1.44.18 3.22.53 4.86.52M38.16 92.08c1.44.18 3.83.6 7.42.52M84.39 89.99c1.44.18 3.83.6 7.42.52M30.84 87.32c1.44.18 7.01.6 10.61.52M84.58 85.07c1.44.18 7.01.6 10.61.52M93.36 28.95s5.53-.59 7.75.3M93.7 32.69s5.53-.59 7.75.3M83.59 73.03s5.53-.59 7.75.3"/><path class="st5" d="M30.61 37.94s4.64.27 6.31.19c3.64-.19 5.65-.67 9.21-.26"/><path class="st3" d="M73.04 36.17c-5.16-.83-11.17-.89-15.51.07M57.47 40.51s4.64.27 6.31.19c3.64-.19 5.65-.67 9.21-.26M85.61 43.01s4.64.27 6.31.19c3.64-.19 5.65-.67 9.21-.26M57.47 50.64s4.64.27 6.31.19c3.64-.19 5.65-.67 9.21-.26M68.23 45.31c1.49-.11 2.94-.14 4.83.08M57.54 45.46s4.64.27 6.31.19M85.66 47.6s4.64.27 6.31.19"/><path class="st5" d="M30.61 42.48s4.64.27 6.31.19"/><path class="st3" d="M101.18 37.91s-4.64-.27-6.31-.19c-3.64.19-5.65.67-9.21.26M101.18 52.54c-6.26-1.32-10.34.68-15.51.07M99.09 95.65s-4.64-.27-6.31-.19c-3.64.19-5.65.67-9.21.26M57.72 78.74h3.22M57.72 82.29l14.94-.67M57.72 86.28h3.22M57.72 89.83l14.94-.67M57.72 93.41h3.22M57.72 96.96l14.94-.67"/></svg>