<svg xmlns="http://www.w3.org/2000/svg" xml:space="preserve" id="Layer_1" x="0" y="0" style="enable-background:new 0 0 40 40" version="1.1" viewBox="0 0 40 40"><style>.st0{fill:#fce1dc}.st2{fill:none;stroke:#ff5e59;stroke-miterlimit:10}</style><g id="Fill"><path d="M5.26 19.691a10.233 10.233 0 0 0-2.126 2.294 3.473 3.473 0 0 0-.39 3.059A6.647 6.647 0 0 0 4.656 27.2a12.077 12.077 0 0 1 3.426 5.49c.124.7.421 1.357.864 1.912.497.497.918.405 1.254-.214.268-.489.092-.834-.184-1.323-.719-1.285.765-2.623.964-4.083.107-.841-.558-1.529-.237-2.294.382-.956 1.789-2.523 1.858-3.548.069-1.025-.413-1.598-.956-2.462-.719-1.132-3.732-1.147-5.414-1.629a1.797 1.797 0 0 0-2.294.803c-.558.872-.122 2.294.91 2.424M3.356 14.476c.153-1.422 1.682-1.919 3.097-2.133 1.415-.214 2.485.115 2.393 1.529a.504.504 0 0 1-.229.466c-.375.168-.994-.543-.91-.941.39-1.896 1.896-3.556 3.426-4.749.979-.765 2.294-1.613 2.072-2.837s-1.529-1.529-2.699-1.69a22.144 22.144 0 0 0-7.502.46 3.595 3.595 0 0 0-1.888.918 1.36 1.36 0 0 0 0 1.904c.459.375 1.201 0 1.728.252.703.375.466 1.529-.428 2.202a3.993 3.993 0 0 0-1.453 4.779c.765 1.705 2.432 2.569 3.938 3.655.038-.099 0 .107 0 0a3.2 3.2 0 0 0-.405-2.019c-.398-.695-1.201-1.169-1.14-1.796zM11.921 3.273c.061.811 2.883-1.736 4.466-1.338.488.096.933.345 1.269.711.341.381.405.935.161 1.384a1.567 1.567 0 0 1-1.621.497 21.18 21.18 0 0 1-2.6-.841 3.06 3.06 0 0 0-2.631.191s.894-1.414.956-.604zM23.498 14.897c-1.529.91-3.059 1.912-3.77 3.525-.711 1.613.13 3.938 1.873 4.091 1.384.122 1.071.941 2.462.941.558 0 .474.061.474 1.529 0 .841 1.338 3.013.887 4.428-.451 1.415-.13 3.319 1.262 3.823.711.26 2.699-1.774 3.212-3.059a14.14 14.14 0 0 0 1.139-3.869c.138-1.399.13-2.042 1.376-2.699a11.09 11.09 0 0 1 2.011-.589 2.062 2.062 0 0 0 1.529-1.323c-1.483-.252-2.294-.191-2.829-1.591-.444-1.101-.986-3.495-1.652-4.489-.933-1.399-2.806-1.728-4.473-1.942a10.73 10.73 0 0 0-3.732 0 3.602 3.602 0 0 0-2.73 2.294c-.344 1.201.444 2.707 1.69 2.806" class="st0"/><path d="M31.535 13.474a2.614 2.614 0 0 1 1.445 2.003c.214.834.176 3.426.765 4.076s2.531-1.392 2.906-2.156c.551-1.162-2.294-1.606-1.231-3.166.436-.619 1.529-.375 1.912.26.341.686.454 1.463.321 2.218l-.222 2.929c-.064.43-.03.869.099 1.285a.978.978 0 0 0 1.002.665c.428-.076.681-.696.352-.979l-.298 3.823c0 .382 0 .887.39.986.512.138.061-1.69 0-2.218-.39-6.538-.107-11.998-.489-18.544a2.306 2.306 0 0 0-.229-1.048 1.652 1.652 0 0 0-2.241-.398 4.764 4.764 0 0 0-1.568 1.95 10.84 10.84 0 0 0-6.316-1.529 2.783 2.783 0 0 0-1.653.529 1.138 1.138 0 0 0-.214 1.529c.398.436 1.323.107 1.223-.466.405.107.382.765.061 1.009-.354.219-.75.359-1.162.413-.398.107-.826.398-.818.811 0 .558.765.765 1.3.52.454-.325.883-.683 1.285-1.071a2.15 2.15 0 0 1 3.373 2.08 2.508 2.508 0 0 0-.114 4.932" class="st0"/></g><g id="Stroke"><path d="M1.062 5.789C.412 7.502.672 24.21.909 33.318a3.817 3.817 0 0 0 .482 2.133c.558.765 1.568.925 2.47 1.025 7.96.872 15.936 1.736 23.935 1.621 1.384 0 11.424-6.53 11.379-7.272-.512-8.412-.107-18.238-.627-26.672a2.098 2.098 0 0 0-.229-1.017 1.942 1.942 0 0 0-1.529-.711c-6.117-.811-13.107-.466-19.24-.398-6.134.069-15.838 2.049-16.488 3.762z" style="fill:none;stroke:#3b5473;stroke-miterlimit:10"/><path d="M8.151 7.609c4.496.145 15.798.856 18.215.765 1.835-.092 4.129-.979 8.97-3.976M26.365 11.792c-.099 5.246.91 15.424.604 21.641" class="st2"/></g></svg>