<svg xmlns="http://www.w3.org/2000/svg" viewBox="0 0 40 40"><rect width="24" height="32" x="1.39075" y="34.8694" fill="#8C8C8C" rx="2.3" transform="rotate(-90 1.39075 34.8694)"/><g filter="url(#a)"><rect width="14" height="24" x="5.39124" y="29.8696" fill="#E7E7E7" rx="0.796251" transform="rotate(-90 5.39124 29.8696)"/></g><rect width="2" height="6" x="6.39111" y="18.8696" fill="#C9C9C9" rx="1" transform="rotate(-90 6.39111 18.8696)"/><rect width="2" height="6" x="6.39111" y="21.8699" fill="#C9C9C9" rx="1" transform="rotate(-90 6.39111 21.8699)"/><rect width="12" height="15" x="13.3915" y="28.8696" fill="#C9C9C9" rx="1" transform="rotate(-90 13.3915 28.8696)"/><rect width="2" height="6" x="6.39111" y="24.8699" fill="#C9C9C9" rx="1" transform="rotate(-90 6.39111 24.8699)"/><g filter="url(#b)"><path fill="url(#c)" d="M32.9595 -0.000244141C32.9595 4.3489 29.5724 7.61075 25.2175 7.61075C29.6691 7.61075 32.9595 10.8726 32.9595 15.0043C32.9595 10.8291 35.6208 7.61075 40.2175 7.61075C35.6208 7.61075 32.9595 4.3489 32.9595 -0.000244141Z"/></g><defs><filter id="a" width="26" height="16" x="4.39124" y="15.8696" color-interpolation-filters="sRGB" filterUnits="userSpaceOnUse"><feFlood flood-opacity="0" result="BackgroundImageFix"/><feColorMatrix in="SourceAlpha" result="hardAlpha" values="0 0 0 0 0 0 0 0 0 0 0 0 0 0 0 0 0 0 127 0"/><feOffset dy="1"/><feGaussianBlur stdDeviation="0.5"/><feComposite in2="hardAlpha" operator="out"/><feColorMatrix values="0 0 0 0 0 0 0 0 0 0 0 0 0 0 0 0 0 0 0.25 0"/><feBlend in2="BackgroundImageFix" result="effect1_dropShadow_3300_308"/><feBlend in="SourceGraphic" in2="effect1_dropShadow_3300_308" result="shape"/></filter><filter id="b" width="17" height="17.0046" x="24.2175" y="-0.000244141" color-interpolation-filters="sRGB" filterUnits="userSpaceOnUse"><feFlood flood-opacity="0" result="BackgroundImageFix"/><feColorMatrix in="SourceAlpha" result="hardAlpha" values="0 0 0 0 0 0 0 0 0 0 0 0 0 0 0 0 0 0 127 0"/><feOffset dy="1"/><feGaussianBlur stdDeviation="0.5"/><feComposite in2="hardAlpha" operator="out"/><feColorMatrix values="0 0 0 0 0 0 0 0 0 0 0 0 0 0 0 0 0 0 0.25 0"/><feBlend in2="BackgroundImageFix" result="effect1_dropShadow_3300_308"/><feBlend in="SourceGraphic" in2="effect1_dropShadow_3300_308" result="shape"/></filter><linearGradient id="c" x1="36.7175" x2="29.7175" y1="4.99976" y2="11.9998" gradientUnits="userSpaceOnUse"><stop stop-color="#FFBA35"/><stop offset="1" stop-color="#FFD27A"/></linearGradient></defs></svg>